<?xml version="1.0" encoding="utf-8"?>
<!-- Generator: Adobe Illustrator 24.3.0, SVG Export Plug-In . SVG Version: 6.00 Build 0)  -->
<svg version="1.0" id="圖層_1" xmlns="http://www.w3.org/2000/svg" xmlns:xlink="http://www.w3.org/1999/xlink" x="0px" y="0px"
	 viewBox="0 0 480 414" style="enable-background:new 0 0 480 414;" xml:space="preserve">
<style type="text/css">
	.st0{fill:none;stroke:url(#SVGID_1_);stroke-width:4.2105;stroke-miterlimit:10;}
	.st1{fill:none;stroke:url(#SVGID_2_);stroke-width:4.2105;stroke-miterlimit:10;}
	.st2{fill:none;stroke:url(#SVGID_3_);stroke-width:4.2105;stroke-miterlimit:10;}
	.st3{fill:none;stroke:url(#SVGID_4_);stroke-width:4.2105;stroke-miterlimit:10;}
	.st4{fill:#FFFFFF;}
</style>
<g>
	<g>
		<linearGradient id="SVGID_1_" gradientUnits="userSpaceOnUse" x1="10.6394" y1="88.6558" x2="106.7794" y2="88.6558">
			<stop  offset="3.208556e-02" style="stop-color:#38A139"/>
			<stop  offset="0.1261" style="stop-color:#72BC72"/>
			<stop  offset="0.2202" style="stop-color:#A4D4A4"/>
			<stop  offset="0.3091" style="stop-color:#CBE7CB"/>
			<stop  offset="0.3902" style="stop-color:#E8F4E8"/>
			<stop  offset="0.4607" style="stop-color:#F9FCF9"/>
			<stop  offset="0.5128" style="stop-color:#FFFFFF"/>
			<stop  offset="0.5547" style="stop-color:#F7FCFC"/>
			<stop  offset="0.6192" style="stop-color:#E1F3F6"/>
			<stop  offset="0.6984" style="stop-color:#BEE4EA"/>
			<stop  offset="0.7892" style="stop-color:#8DD0DB"/>
			<stop  offset="0.8886" style="stop-color:#4FB6C7"/>
			<stop  offset="0.9251" style="stop-color:#36ACBF"/>
		</linearGradient>
		<path class="st0" d="M12.7,159v-20.7c15.5-13.8,28.6-26.5,39.1-38C69.7,81,78.6,66.9,78.6,57.9c0-11.9-6.9-17.8-20.6-17.8
			c-7.7,0-13,2.3-16,7c-2.3,3.8-3.3,9.7-2.9,17.8h-25c0.5-31.1,15.2-46.6,44.2-46.6c12.6,0,23,3.2,31.2,9.7
			c8.9,7,13.4,16.7,13.4,29.2c0,18.3-18.4,44.7-55.2,79.1h56.9V159H12.7z"/>
		<linearGradient id="SVGID_2_" gradientUnits="userSpaceOnUse" x1="124.9551" y1="90.032" x2="231.5547" y2="90.032">
			<stop  offset="3.208556e-02" style="stop-color:#38A139"/>
			<stop  offset="0.1261" style="stop-color:#72BC72"/>
			<stop  offset="0.2202" style="stop-color:#A4D4A4"/>
			<stop  offset="0.3091" style="stop-color:#CBE7CB"/>
			<stop  offset="0.3902" style="stop-color:#E8F4E8"/>
			<stop  offset="0.4607" style="stop-color:#F9FCF9"/>
			<stop  offset="0.5128" style="stop-color:#FFFFFF"/>
			<stop  offset="0.5547" style="stop-color:#F7FCFC"/>
			<stop  offset="0.6192" style="stop-color:#E1F3F6"/>
			<stop  offset="0.6984" style="stop-color:#BEE4EA"/>
			<stop  offset="0.7892" style="stop-color:#8DD0DB"/>
			<stop  offset="0.8886" style="stop-color:#4FB6C7"/>
			<stop  offset="0.9251" style="stop-color:#36ACBF"/>
		</linearGradient>
		<path class="st1" d="M178.4,161.8c-18.6,0-32.3-7.7-41.1-23.1c-6.9-12.2-10.3-28.3-10.3-48.3c0-20.1,3.4-36.3,10.3-48.6
			c8.8-15.7,22.5-23.5,41.1-23.5c18.3,0,31.9,7.8,40.7,23.5c6.8,12.4,10.3,28.6,10.3,48.6c0,19.9-3.4,36-10.3,48.3
			C210.4,154.1,196.8,161.8,178.4,161.8z M178.4,39.8c-17.9,0-26.8,16.9-26.8,50.6c0,32.9,8.9,49.4,26.8,49.4
			c17.7,0,26.6-16.5,26.6-49.4C205,56.6,196.2,39.8,178.4,39.8z"/>
		<linearGradient id="SVGID_3_" gradientUnits="userSpaceOnUse" x1="249.9139" y1="88.6558" x2="346.0539" y2="88.6558">
			<stop  offset="3.208556e-02" style="stop-color:#38A139"/>
			<stop  offset="0.1261" style="stop-color:#72BC72"/>
			<stop  offset="0.2202" style="stop-color:#A4D4A4"/>
			<stop  offset="0.3091" style="stop-color:#CBE7CB"/>
			<stop  offset="0.3902" style="stop-color:#E8F4E8"/>
			<stop  offset="0.4607" style="stop-color:#F9FCF9"/>
			<stop  offset="0.5128" style="stop-color:#FFFFFF"/>
			<stop  offset="0.5547" style="stop-color:#F7FCFC"/>
			<stop  offset="0.6192" style="stop-color:#E1F3F6"/>
			<stop  offset="0.6984" style="stop-color:#BEE4EA"/>
			<stop  offset="0.7892" style="stop-color:#8DD0DB"/>
			<stop  offset="0.8886" style="stop-color:#4FB6C7"/>
			<stop  offset="0.9251" style="stop-color:#36ACBF"/>
		</linearGradient>
		<path class="st2" d="M252,159v-20.7c15.5-13.8,28.6-26.5,39.1-38C309,81,317.9,66.9,317.9,57.9c0-11.9-6.9-17.8-20.6-17.8
			c-7.7,0-13,2.3-16,7c-2.3,3.8-3.3,9.7-2.9,17.8h-25c0.5-31.1,15.2-46.6,44.2-46.6c12.6,0,23,3.2,31.2,9.7
			c8.9,7,13.4,16.7,13.4,29.2c0,18.3-18.4,44.7-55.2,79.1h56.9V159H252z"/>
		<linearGradient id="SVGID_4_" gradientUnits="userSpaceOnUse" x1="365.6982" y1="90.032" x2="469.3607" y2="90.032">
			<stop  offset="3.208556e-02" style="stop-color:#38A139"/>
			<stop  offset="0.1261" style="stop-color:#72BC72"/>
			<stop  offset="0.2202" style="stop-color:#A4D4A4"/>
			<stop  offset="0.3091" style="stop-color:#CBE7CB"/>
			<stop  offset="0.3902" style="stop-color:#E8F4E8"/>
			<stop  offset="0.4607" style="stop-color:#F9FCF9"/>
			<stop  offset="0.5128" style="stop-color:#FFFFFF"/>
			<stop  offset="0.5547" style="stop-color:#F7FCFC"/>
			<stop  offset="0.6192" style="stop-color:#E1F3F6"/>
			<stop  offset="0.6984" style="stop-color:#BEE4EA"/>
			<stop  offset="0.7892" style="stop-color:#8DD0DB"/>
			<stop  offset="0.8886" style="stop-color:#4FB6C7"/>
			<stop  offset="0.9251" style="stop-color:#36ACBF"/>
		</linearGradient>
		<path class="st3" d="M420.5,161.8c-18.1,0-31.7-6.6-40.9-19.8c-7.8-11.5-11.7-26.7-11.7-45.5c0-52.1,17.7-78.2,53.2-78.2
			c29,0,43.9,14,44.6,42h-24.2c-0.5-7-2.3-12.1-5.3-15.4c-3.1-3.2-8-4.8-14.7-4.8c-15.2,0-24.5,10.9-27.9,32.7
			c8.2-5.5,17.4-8.3,27.7-8.3c14.2,0,25.4,4.5,33.6,13.4c8.3,9.1,12.5,20.8,12.5,35.2c0,14.2-4.2,25.8-12.7,34.7
			C445.9,157.1,434.5,161.8,420.5,161.8z M420.8,86.5c-8,0-14.4,2.6-19.3,7.9c-4.9,5.3-7.3,12-7.3,20.2c0,6.4,2.4,12.2,7.3,17.4
			c4.8,5.1,10.4,7.7,16.9,7.7c7.3,0,13.3-2.5,17.8-7.5c4.4-4.9,6.6-11.1,6.6-18.5c0-7.7-1.8-13.9-5.3-18.7
			C433.6,89.4,428,86.5,420.8,86.5z"/>
	</g>
	<g>
		<path class="st4" d="M197.8,395.8h-43.3v-76.8H56.3v76.8H13.1V248.3c0-12.2,4-21.4,12-27.7c7.5-5.8,17.4-8.8,29.8-8.8h101.7
			c12.2,0,21.9,3,29.3,9c8,6.5,12,15.7,12,27.5V395.8z M154.6,294.1v-48.7H56.3v48.7H154.6z"/>
		<path class="st4" d="M262,395.8h-47v-184h47V395.8z"/>
		<path class="st4" d="M466.9,395.8h-43.3v-76.8h-98.3v76.8h-43.3V248.3c0-12.2,4-21.4,12-27.7c7.5-5.8,17.4-8.8,29.8-8.8h101.7
			c12.2,0,21.9,3,29.3,9c8,6.5,12,15.7,12,27.5V395.8z M423.7,294.1v-48.7h-98.3v48.7H423.7z"/>
	</g>
</g>
</svg>
