<?xml version="1.0" encoding="utf-8"?>
<!-- Generator: Adobe Illustrator 24.3.0, SVG Export Plug-In . SVG Version: 6.00 Build 0)  -->
<svg version="1.0" id="圖層_1" xmlns="http://www.w3.org/2000/svg" xmlns:xlink="http://www.w3.org/1999/xlink" x="0px" y="0px"
	 viewBox="0 0 200 60" style="enable-background:new 0 0 200 60;" xml:space="preserve">
<style type="text/css">
	.st0{fill:#FFFFFF;}
</style>
<g>
	<path class="st0" d="M42.2,22.1l-4-9.6h-7.9L35.2,24C38.7,23,41,22.4,42.2,22.1L42.2,22.1z M33.5,31.2c-1.5,0.8-4.9,2.9-7.8,5.9
		l3.2,6.8c3.4,0,6.9,0.3,10.2,0.7L33.5,31.2z M5.4,47c0.6-0.2,1.1-0.3,1.7-0.5c0,0,0,0,0.1,0c0.3-0.1,0.5-0.1,0.8-0.2c0,0,0,0,0,0
		c0.6-0.1,1.2-0.3,1.8-0.4c1.4-0.3,2.8-0.6,4.3-0.8c5.9-7.7,12.7-12.7,22.8-17.2l7.4,17.6c3.1,0.6,6.1,1.4,8.9,2.4l-9.5-22.7
		c2.9-1.1,6-2.2,9.3-3.3l0.7-1.2c-7.2,1.5-14.8,3.4-21.9,6l-5.9-14.1h-7.4L3,47.4c-0.1,0.1-0.1,0.3-0.2,0.4c0.2-0.1,0.5-0.2,0.8-0.3
		c0.1,0,0.1,0,0.2-0.1c0.2-0.1,0.4-0.1,0.6-0.2c0.1,0,0.1,0,0.2-0.1C4.8,47.1,5,47.1,5.3,47C5.3,47,5.3,47,5.4,47L5.4,47z
		 M19.8,24.4l2.8,6c-2.7,1.3-5.2,2.7-7.6,4.2L19.8,24.4z"/>
	<path class="st0" d="M68,43.8v-8.5h-3.1v-2.4h8.7v2.4h-3.1v8.5H68z M75.7,44c-0.9,0-1.6-0.2-2.1-0.7c-0.5-0.5-0.8-1.1-0.8-1.9
		c0-0.5,0.1-1,0.4-1.4c0.3-0.4,0.7-0.7,1.1-0.9c0.5-0.2,1.1-0.3,1.7-0.3c0.3,0,0.6,0,0.9,0.1c0.3,0,0.6,0.1,0.8,0.2v-0.5
		c0-0.3-0.1-0.6-0.4-0.8c-0.2-0.2-0.6-0.3-1-0.3c-0.4,0-0.8,0.1-1.2,0.2c-0.4,0.1-0.8,0.4-1.3,0.6l-0.7-1.8c0.5-0.3,1-0.6,1.6-0.7
		c0.6-0.2,1.2-0.3,1.8-0.3c1.1,0,2,0.3,2.6,0.8c0.6,0.5,0.9,1.3,0.9,2.3v5h-2.3v-0.6c-0.2,0.2-0.5,0.4-0.9,0.6
		C76.6,43.9,76.2,44,75.7,44z M76.3,42.1c0.3,0,0.6,0,0.8-0.1c0.3-0.1,0.5-0.2,0.7-0.4v-0.7c-0.2-0.1-0.4-0.1-0.6-0.2
		c-0.2,0-0.5-0.1-0.7-0.1c-0.4,0-0.7,0.1-1,0.2c-0.2,0.1-0.3,0.3-0.3,0.6c0,0.2,0.1,0.4,0.3,0.5C75.7,42,76,42.1,76.3,42.1z
		 M81.6,43.8v-7.9h2.3v7.9H81.6z M82.7,35.2c-0.4,0-0.7-0.1-0.9-0.4c-0.3-0.3-0.4-0.6-0.4-0.9c0-0.4,0.1-0.7,0.4-0.9
		c0.3-0.3,0.6-0.4,0.9-0.4c0.4,0,0.7,0.1,1,0.4c0.3,0.2,0.4,0.6,0.4,0.9c0,0.4-0.1,0.7-0.4,0.9C83.4,35,83.1,35.2,82.7,35.2z
		 M87.2,43.8l-2.3-7.9h2.3l0.8,3.1c0,0.1,0.1,0.3,0.1,0.6c0,0.2,0.1,0.4,0.1,0.6c0-0.2,0.1-0.4,0.1-0.6c0.1-0.2,0.1-0.4,0.1-0.6
		l0.8-3.1h2.1l0.8,3.1c0,0.1,0.1,0.3,0.1,0.6c0.1,0.2,0.1,0.5,0.1,0.6c0-0.2,0.1-0.4,0.1-0.6c0-0.2,0.1-0.4,0.1-0.6l0.8-3.1h2.3
		l-2.3,7.9h-2.1l-0.8-3.5c0-0.1-0.1-0.3-0.1-0.6c-0.1-0.3-0.1-0.5-0.1-0.7c0,0.2-0.1,0.4-0.1,0.7C90.1,40,90,40.2,90,40.3l-0.8,3.5
		H87.2z M98.9,44c-0.9,0-1.6-0.2-2.1-0.7c-0.5-0.5-0.8-1.1-0.8-1.9c0-0.5,0.1-1,0.4-1.4c0.3-0.4,0.7-0.7,1.1-0.9
		c0.5-0.2,1.1-0.3,1.7-0.3c0.3,0,0.6,0,0.9,0.1c0.3,0,0.6,0.1,0.8,0.2v-0.5c0-0.3-0.1-0.6-0.3-0.8c-0.2-0.2-0.6-0.3-1-0.3
		c-0.4,0-0.8,0.1-1.2,0.2c-0.4,0.1-0.8,0.4-1.3,0.6l-0.7-1.8c0.5-0.3,1-0.6,1.6-0.7c0.6-0.2,1.2-0.3,1.8-0.3c1.1,0,2,0.3,2.6,0.8
		c0.6,0.5,0.9,1.3,0.9,2.3v5H101v-0.6c-0.2,0.2-0.5,0.4-0.9,0.6C99.7,43.9,99.3,44,98.9,44z M99.5,42.1c0.3,0,0.6,0,0.8-0.1
		c0.3-0.1,0.5-0.2,0.7-0.4v-0.7c-0.2-0.1-0.4-0.1-0.6-0.2c-0.2,0-0.5-0.1-0.7-0.1c-0.4,0-0.7,0.1-1,0.2c-0.2,0.1-0.4,0.3-0.4,0.6
		c0,0.2,0.1,0.4,0.3,0.5C98.8,42,99.1,42.1,99.5,42.1z M104.7,43.8v-7.9h2.3v0.7c0.3-0.3,0.6-0.5,0.9-0.7c0.4-0.2,0.8-0.2,1.2-0.2
		c0.8,0,1.5,0.3,2,0.8c0.5,0.5,0.7,1.2,0.7,2.1v5.2h-2.3v-4.1c0-0.7-0.1-1.1-0.3-1.4c-0.2-0.3-0.5-0.4-0.9-0.4c-0.5,0-0.8,0.1-1,0.4
		c-0.2,0.3-0.3,0.7-0.3,1.4v4.1H104.7z M115.2,43.8l4.3-10.9h2.3l4.4,10.9h-2.7l-0.8-2.1h-4.1l-0.8,2.1H115.2z M119.5,39.5h2.4
		l-0.9-2.2c0-0.1-0.1-0.2-0.1-0.2c0-0.1-0.1-0.2-0.1-0.3c0-0.1-0.1-0.2-0.1-0.3c0,0.1-0.1,0.2-0.1,0.3c0,0.1-0.1,0.2-0.1,0.3
		c0,0.1-0.1,0.2-0.1,0.2L119.5,39.5z M126.8,43.8V32.9h2.5v10.9H126.8z M132.5,43.8l4.3-10.9h2.3l4.4,10.9h-2.7l-0.8-2.1H136
		l-0.8,2.1H132.5z M136.8,39.5h2.4l-0.9-2.2c0-0.1-0.1-0.2-0.1-0.2c0-0.1-0.1-0.2-0.1-0.3c0-0.1-0.1-0.2-0.1-0.3
		c0,0.1-0.1,0.2-0.1,0.3c0,0.1-0.1,0.2-0.1,0.3c0,0.1-0.1,0.2-0.1,0.2L136.8,39.5z M147.3,44c-0.8,0-1.4-0.2-2-0.5
		c-0.6-0.3-1-0.8-1.3-1.4c-0.3-0.6-0.5-1.4-0.5-2.2c0-0.8,0.2-1.6,0.5-2.2c0.3-0.6,0.7-1.1,1.3-1.5c0.6-0.3,1.2-0.5,2-0.5
		c0.9,0,1.7,0.2,2.3,0.6c0.6,0.4,1,1.1,1.3,1.9l-2.2,0.7c-0.1-0.3-0.3-0.6-0.5-0.8c-0.2-0.2-0.5-0.3-0.8-0.3c-0.4,0-0.7,0.2-1,0.5
		c-0.3,0.4-0.4,0.8-0.4,1.4s0.1,1,0.4,1.4c0.3,0.4,0.6,0.5,1,0.5c0.3,0,0.6-0.1,0.8-0.3c0.2-0.2,0.4-0.5,0.5-0.9l2.2,0.6
		c-0.3,0.9-0.7,1.6-1.3,2.1C149,43.8,148.3,44,147.3,44z M154.4,44c-0.9,0-1.6-0.2-2.1-0.7c-0.5-0.5-0.8-1.1-0.8-1.9
		c0-0.5,0.1-1,0.4-1.4c0.3-0.4,0.7-0.7,1.1-0.9c0.5-0.2,1.1-0.3,1.7-0.3c0.3,0,0.6,0,0.9,0.1c0.3,0,0.6,0.1,0.8,0.2v-0.5
		c0-0.3-0.1-0.6-0.4-0.8c-0.2-0.2-0.6-0.3-1-0.3c-0.4,0-0.8,0.1-1.2,0.2c-0.4,0.1-0.8,0.4-1.3,0.6l-0.7-1.8c0.5-0.3,1-0.6,1.6-0.7
		c0.6-0.2,1.2-0.3,1.8-0.3c1.1,0,2,0.3,2.6,0.8c0.6,0.5,0.9,1.3,0.9,2.3v5h-2.3v-0.6c-0.2,0.2-0.5,0.4-0.9,0.6
		C155.3,43.9,154.9,44,154.4,44z M155,42.1c0.3,0,0.6,0,0.8-0.1c0.3-0.1,0.5-0.2,0.7-0.4v-0.7c-0.2-0.1-0.4-0.1-0.6-0.2
		c-0.2,0-0.5-0.1-0.7-0.1c-0.4,0-0.7,0.1-1,0.2c-0.2,0.1-0.4,0.3-0.4,0.6c0,0.2,0.1,0.4,0.3,0.5C154.3,42,154.6,42.1,155,42.1z
		 M163.1,44c-1,0-1.8-0.4-2.4-1.1c-0.6-0.7-0.9-1.8-0.9-3.1c0-0.8,0.1-1.5,0.4-2.2c0.3-0.6,0.7-1.1,1.2-1.5c0.5-0.4,1.1-0.5,1.7-0.5
		c0.7,0,1.2,0.3,1.6,0.8v-2.8l2.3-1v11.2h-2.3v-0.7C164.4,43.7,163.8,44,163.1,44z M163.5,41.8c0.3,0,0.5,0,0.7-0.1
		c0.2-0.1,0.3-0.2,0.5-0.3v-2.9c-0.1-0.2-0.3-0.3-0.5-0.4c-0.2-0.1-0.4-0.1-0.7-0.1c-0.4,0-0.8,0.2-1,0.5c-0.2,0.3-0.4,0.8-0.4,1.4
		c0,0.4,0,0.8,0.1,1.1c0.1,0.3,0.2,0.5,0.4,0.6C162.9,41.7,163.2,41.8,163.5,41.8z M172,44c-0.8,0-1.5-0.2-2-0.5
		c-0.6-0.3-1-0.8-1.3-1.4c-0.3-0.6-0.5-1.4-0.5-2.2c0-0.8,0.2-1.6,0.5-2.2c0.3-0.6,0.7-1.1,1.3-1.4c0.6-0.3,1.2-0.5,2-0.5
		c0.7,0,1.3,0.1,1.8,0.4c0.5,0.3,1,0.7,1.3,1.2c0.3,0.6,0.5,1.3,0.5,2.1c0,0.1,0,0.3,0,0.5c0,0.2,0,0.4-0.1,0.6h-5.1
		c0,0.3,0.1,0.5,0.2,0.7c0.1,0.2,0.3,0.4,0.5,0.5c0.2,0.1,0.5,0.2,0.8,0.2c0.4,0,0.7-0.1,1-0.2c0.3-0.1,0.5-0.3,0.8-0.6l1.3,1.3
		c-0.4,0.5-0.8,0.8-1.3,1.1C173.2,43.9,172.6,44,172,44z M170.5,38.9h2.9c0-0.3-0.1-0.5-0.2-0.7c-0.1-0.2-0.3-0.3-0.5-0.4
		c-0.2-0.1-0.4-0.1-0.7-0.1c-0.4,0-0.7,0.1-1,0.3C170.7,38.2,170.5,38.5,170.5,38.9z M176.6,43.8v-7.9h2.3v0.7
		c0.3-0.3,0.6-0.6,0.8-0.7c0.3-0.1,0.6-0.2,1-0.2c0.5,0,0.9,0.1,1.2,0.3c0.3,0.2,0.6,0.5,0.7,0.8c0.3-0.4,0.6-0.6,1-0.8
		c0.4-0.2,0.9-0.3,1.5-0.3c1.1,0,1.8,0.3,2.3,0.8c0.5,0.5,0.7,1.3,0.7,2.5v4.9h-2.3v-4c0-0.7-0.1-1.1-0.3-1.4s-0.5-0.4-0.9-0.4
		c-0.3,0-0.5,0.1-0.7,0.2c-0.2,0.1-0.3,0.3-0.4,0.6c-0.1,0.3-0.1,0.6-0.1,1v4.1h-2.3v-4c0-0.7-0.1-1.1-0.3-1.4
		c-0.2-0.3-0.5-0.4-0.9-0.4c-0.4,0-0.7,0.1-0.9,0.4c-0.2,0.3-0.3,0.7-0.3,1.4v4.1H176.6z M190.6,46.8l1.2-3.1l-3-7.9h2.4l1.6,4.1
		c0,0.1,0.1,0.2,0.1,0.3c0,0.1,0.1,0.3,0.1,0.4c0-0.1,0.1-0.3,0.1-0.4c0.1-0.1,0.1-0.3,0.1-0.4l1.6-4.1h2.4l-4.2,11H190.6z"/>
	<path class="st0" d="M79.3,18.2l-2,1.4c-0.2-0.3-0.4-0.7-0.7-1.1c-8.1,0.4-9.4,0.4-10.4,0.7c-0.1-0.4-0.5-1.6-0.8-2.2
		c0.5-0.1,0.8-0.4,1.4-0.9c0.5-0.5,2.2-2.4,3.2-4.3l2.3,1c-0.9,1.3-2,2.6-3.2,3.7l5.7-0.1c-0.5-0.6-1.1-1.2-1.6-1.7l1.8-1.2
		C76.5,14.9,78.4,16.8,79.3,18.2z M75.2,22.3h-6.3v2h6.3V22.3z M66.6,27.3v-7.2h11.1v7.2h-2.5v-0.8h-6.3v0.8H66.6z M92.2,14.9
		L92.2,14.9l-3.7,0v-1.1h1.4c-0.1-0.3-0.3-0.7-0.4-1.1l1.5-0.3c0.2,0.4,0.4,0.9,0.5,1.2l-0.6,0.1h1.4v1.1c0.1-0.1,0.3-0.2,0.4-0.4
		c0.2-0.2,0.7-1.2,0.9-2.1l1.2,0.4c-0.2,0.5-0.6,1.1-1,1.7l0.5,0c0.1-0.2,0.3-0.5,0.4-0.7l1.1,0.5c-0.4,0.7-1,1.5-1.6,2.2l0.7-0.1
		c0-0.1-0.1-0.2-0.1-0.3l0.9-0.3c0.3,0.6,0.6,1.3,0.7,1.7l-0.9,0.4c0-0.1-0.1-0.3-0.1-0.5c-1.9,0.3-2.3,0.4-2.6,0.5
		c-0.1-0.2-0.3-0.6-0.4-0.9c0.3,0,0.5-0.2,0.8-0.6c0.1-0.1,0.4-0.5,0.7-0.9c-0.7,0.1-1,0.1-1.1,0.2C92.6,15.6,92.3,15.2,92.2,14.9z
		 M94.9,20.2l-1,0.3c0-0.5-0.1-1.3-0.3-1.9l0.9-0.3C94.7,18.9,94.9,19.7,94.9,20.2z M92.6,18.2l1,0.3c-0.1,0.8-0.3,1.6-0.6,2.1
		c-0.2-0.2-0.6-0.5-0.9-0.7C92.3,19.4,92.5,18.8,92.6,18.2z M92,16.5v1h-3.1v-1H92z M90.2,18.8v0.5h0.4v-0.5H90.2z M88.9,20.3v-2.4
		H92v2.4H88.9z M92,15.2v1h-3.1v-1H92z M88.8,17.5l-0.9,0.4c0-0.1-0.1-0.3-0.1-0.5c-1.9,0.3-2.3,0.4-2.6,0.5c0-0.2-0.3-0.6-0.4-0.9
		c0.3,0,0.5-0.3,0.8-0.6c0.1-0.1,0.4-0.5,0.7-0.9c-0.7,0.1-1,0.1-1.1,0.2c-0.1-0.2-0.3-0.6-0.4-0.8c0.2,0,0.4-0.2,0.6-0.4
		c0.2-0.2,0.7-1.2,0.9-2.1l1.2,0.4c-0.2,0.6-0.6,1.1-1,1.7l0.6,0c0.1-0.2,0.3-0.5,0.4-0.7l1.1,0.5c-0.4,0.7-1,1.5-1.6,2.2l0.6-0.1
		c0-0.1-0.1-0.2-0.1-0.3l0.9-0.3C88.4,16.3,88.7,17,88.8,17.5z M88.6,19.6L87.7,20c0-0.4-0.2-1.1-0.4-1.7l0.8-0.3
		C88.4,18.5,88.5,19.1,88.6,19.6z M87.3,20l-1,0.3c0-0.5-0.1-1.2-0.3-1.8l0.9-0.3C87.1,18.8,87.3,19.5,87.3,20z M84.9,18.3l1,0.3
		c-0.1,0.8-0.3,1.6-0.6,2.1c-0.2-0.2-0.6-0.5-0.9-0.7C84.7,19.5,84.8,18.9,84.9,18.3z M85.2,14l-1.4,1.7c-0.4-0.5-1.5-1.3-2.3-1.7
		l1.3-1.6C83.6,12.8,84.6,13.4,85.2,14z M84.8,18l-1.3,1.8c-0.5-0.5-1.5-1.2-2.3-1.6l1.3-1.6C83.2,16.9,84.3,17.5,84.8,18z
		 M83.6,27.2L81.5,26c0.6-1.3,1.4-3.3,2-5.2l1.8,1.2C84.9,23.8,84.3,25.6,83.6,27.2z M88.1,23.8h7.8c0,0,0,0.5-0.1,0.8
		c-0.2,1.2-0.5,1.9-0.9,2.3c-0.4,0.4-1,0.4-1.6,0.5c-0.6,0-1.5,0-2.5,0c0-0.5-0.3-1.2-0.6-1.7c0.9,0.1,2,0.1,2.4,0.1
		c0.3,0,0.5,0,0.7-0.1c0.1-0.1,0.2-0.2,0.3-0.5h-7.9c0.3-0.8,0.5-2,0.7-3H93v-0.3h-7.1v-1.2h9.2v2.8h-6.9L88.1,23.8z M94.9,18.3
		l0.9-0.3c0.2,0.6,0.4,1.4,0.5,1.9l-0.9,0.4C95.3,19.8,95.2,19,94.9,18.3z M104.1,12.2h2.7c0,0.7,0,1.6-0.1,2.7
		c0.2,2.3,1.2,7.9,6.8,10.4c-0.7,0.6-1.4,1.4-1.7,2c-3.4-1.6-5.1-4.4-6.1-7c-0.9,2.6-2.6,5.2-5.6,7.1c-0.4-0.6-1.2-1.4-1.9-1.9
		C104.4,21.9,104,15.1,104.1,12.2z M123.6,24h6.1v2.3h-14.7V24h5.9v-7.8h-5v-2.4h12.9v2.4h-5.2V24z M133.6,15.9h1.1v-0.2v-0.6h-0.5
		C134,15.4,133.8,15.6,133.6,15.9z M142.2,22.3h-6.1v0.5h6.1V22.3z M136.1,25h6.1v-0.6h-6.1V25z M139.3,18.9l-1.7,1.4
		c-0.4-0.4-1.2-1-1.8-1.4c-0.4,0.5-1,1.1-1.7,1.5h10.5v6.9h-2.4v-0.5h-6.1v0.5h-2.3v-6.7c-0.2,0.1-0.5,0.3-0.8,0.4
		c-0.3-0.5-1-1.2-1.5-1.5c1.4-0.5,2.2-1.2,2.6-1.9h-2.4v-1.8h1.1c-0.4-0.3-1-0.6-1.3-0.7c0.8-0.7,1.4-1.9,1.7-3.1l2,0.4
		c-0.1,0.3-0.2,0.6-0.3,0.8h3.7v1.8h-1.9v0.6v0.2h2.3v1.8h-2.1C137.8,18,139,18.7,139.3,18.9z M143.7,17.6v-2.3h-1.9v2.3H143.7z
		 M139.6,13.3h6.4v6.4h-6.4V13.3z M158.1,17.9v-0.5h-2.2v-1.3h2.2v-0.4h-1.8v-1.3h1.8v-0.3H156v-1.3h2.1v-0.6h2.2v0.6h2.3v1.3h-2.3
		v0.3h2.1v1.3h-2.1v0.4h2.6v1.3h-2.6v0.5H158.1z M151.2,17.9v-0.5h-2.5v-1.3h2.5v-0.4h-1.8v-1.3h1.8v-0.3H149v-1.3h2.2v-0.6h2.1v0.6
		h2.1v1.3h-2.1v0.3h1.9v1.3h-1.9v0.4h2.2v1.3h-2.2v0.5H151.2z M159.5,21.5v-0.4h-10.9v-1.3h10.9v-0.3H150v-1.4h11.8v1.7h1.5v1.3
		h-1.5v1.8h-4.7c0.4,0.3,0.8,0.6,1,0.9l-1.6,1.3c-0.4-0.5-1.2-1.1-1.8-1.6l0.7-0.6h-5.5v-1.4H159.5z M150.3,27.1l-2-1.2
		c0.8-0.7,1.5-1.7,1.9-2.7l2,0.9C151.7,25.1,151.1,26.3,150.3,27.1z M163.5,25.9l-2,1.1c-0.3-0.5-0.7-1.2-1.3-1.8
		c-0.3,1.5-0.9,2-2.5,2h-2.4c-2.4,0-2.9-0.6-2.9-2.4v-1.5h2.3v1.5c0,0.4,0.1,0.5,0.9,0.5h1.9c0.6,0,0.7-0.1,0.8-1.1
		c0.4,0.3,1,0.5,1.6,0.7c-0.2-0.3-0.5-0.5-0.7-0.7l1.9-1C161.9,23.9,163,25.1,163.5,25.9z M174.5,14.1l-1.1,0.9
		c-0.2-0.2-0.4-0.4-0.7-0.6c-0.4,0.3-0.8,0.5-1.2,0.7c-0.3-0.3-0.8-0.8-1.2-1c0.4-0.2,0.8-0.3,1.1-0.5c-0.3-0.1-0.5-0.3-0.7-0.4
		l1-0.8c0.3,0.1,0.6,0.3,0.8,0.4c0.2-0.2,0.4-0.4,0.5-0.5l1.5,0.4c-0.2,0.3-0.5,0.6-0.7,0.8C174.1,13.7,174.4,13.9,174.5,14.1z
		 M168.8,17.6l0,0.4h2.4c-0.2-0.2-0.5-0.5-0.7-0.7v0.4H168.8z M167.7,19.6v1.9h-2.2v-3.5h1.1l-0.3-4.8c1-0.2,2.4-0.6,3.3-0.9
		l0.9,1.3c-0.6,0.2-1.3,0.4-2,0.6l0,0.3h1.9v1.4h-1.8l0,0.4h1.8v0.6c0.3-0.1,0.6-0.3,0.9-0.4c-0.3-0.2-0.5-0.3-0.8-0.4l1.1-0.9
		c0.3,0.1,0.6,0.3,0.9,0.5c0.2-0.2,0.4-0.4,0.6-0.6l1.5,0.4c-0.2,0.3-0.5,0.6-0.8,0.9c0.3,0.2,0.6,0.5,0.9,0.7l-1.1,1
		c-0.2-0.2-0.5-0.4-0.8-0.7c-0.4,0.3-0.7,0.5-1.1,0.7h4.8l0-0.4h-1.6v-1.4h1.8l0-0.4h-1.7v-1.4h1.8l0-0.4h-1.9v-1.4h4.2
		c-0.1,1.7-0.2,3.7-0.4,5.3h1.2v3.5h-2.3v-1.9H167.7z M179.9,22.7v1.8H174v0.7c0,1-0.2,1.5-1,1.8c-0.7,0.3-1.7,0.3-2.8,0.3
		c-0.1-0.6-0.4-1.4-0.7-1.9c0.7,0,1.6,0,1.9,0c0.3,0,0.3,0,0.3-0.2v-0.7h-6.4v-1.8h6.4v-0.3c0.4-0.2,0.9-0.5,1.4-0.8h-4.5V20h6.7
		l0.5-0.1l1.3,1.2c-0.8,0.5-1.6,1.1-2.5,1.6H179.9z M193.7,16.5h-3.6l1.6,0.7c-0.5,0.7-1.1,1.5-1.8,2.2l0.9-0.2
		c0.3,0.9,0.7,1.7,1.2,2.4c0.5-0.7,0.8-1.5,1.1-2.4l1.6,0.4c-0.6-0.8-1.3-1.6-2-2.3L193.7,16.5z M197,19.1l-1.7,1.5
		c0-0.1-0.1-0.2-0.2-0.3c-0.4,1.1-0.9,2.1-1.5,3c1,0.8,2.2,1.4,3.7,1.8c-0.5,0.5-1.2,1.5-1.5,2.1c-1.5-0.5-2.7-1.2-3.7-2.1
		c-1.1,0.9-2.3,1.7-3.8,2.2c-0.3-0.5-1-1.4-1.4-1.8c1.5-0.5,2.7-1.2,3.7-2.2c-0.6-0.9-1.1-1.9-1.5-3c-0.2,0.1-0.3,0.3-0.5,0.4
		c-0.4-0.4-1-1-1.5-1.4c0.4,0.7,0.9,1.4,1,1.6l-1.3,1.7c-0.2-0.5-0.4-1.2-0.7-1.9v6.5h-2.1v-5.7c-0.4,1.2-0.8,2.4-1.3,3.2
		c-0.2-0.7-0.7-1.7-1-2.3c0.9-1.2,1.6-3.3,1.9-5.1h-1.4v-2.1h1.8v-3h2.1v3h1.5v2.1H186v0.4c0.2,0.3,0.6,0.8,1,1.5
		c0.9-0.7,1.9-1.8,2.5-2.8h-1.6v-2.1h3.4c-0.2-0.5-0.6-1.1-0.9-1.6l2.1-0.7c0.5,0.6,0.9,1.4,1.1,2l-0.9,0.4h4.1v2.1h-2.1
		C195.6,17.3,196.5,18.3,197,19.1z"/>
</g>
</svg>
