<?xml version="1.0" encoding="UTF-8"?>
<svg version="1.1" xmlns="http://www.w3.org/2000/svg" width="410" height="282">
<!-- 藍色背景已移除，改為透明 -->
<path d="M0 0 C135.3 0 270.6 0 410 0 C410 93.06 410 186.12 410 282 C274.7 282 139.4 282 0 282 C0 188.94 0 95.88 0 0 Z " fill="none" transform="translate(0,0)"/>
<path d="M0 0 C16.5 0 33 0 50 0 C51.52625 3.485625 53.0525 6.97125 54.625 10.5625 C55.09244629 11.62670166 55.55989258 12.69090332 56.04150391 13.78735352 C58.43504021 19.27414346 60.73389599 24.78983497 62.9375 30.35546875 C65.67194434 37.2562567 68.57747206 44.06919435 71.55310059 50.87011719 C72.97128257 54.1138425 74.37930131 57.36198341 75.7890625 60.609375 C76.34142823 61.88087811 76.89383607 63.15236293 77.44628906 64.42382812 C77.95901367 65.60396484 78.47173828 66.78410156 79 68 C79.44827148 69.03060547 79.89654297 70.06121094 80.35839844 71.12304688 C81.4959833 73.74573655 82.62470656 76.37201844 83.75 79 C84.07274902 79.73959961 84.39549805 80.47919922 84.72802734 81.24121094 C86.39169073 85.15105033 87.49844952 88.77641701 88 93 C88.89976562 92.64808594 89.79953125 92.29617187 90.7265625 91.93359375 C101.51098398 87.77476472 112.45101661 84.23639255 123.48388672 80.79931641 C125.88732784 80.03579358 128.27372586 79.23285988 130.66015625 78.41796875 C134.0082436 77.29470384 137.3667265 76.35135373 140.80322266 75.52734375 C145.44650037 74.4127094 150.06438426 73.19497042 154.6875 72 C155.70650391 71.73960938 156.72550781 71.47921875 157.77539062 71.2109375 C159.25362305 70.82808594 159.25362305 70.82808594 160.76171875 70.4375 C161.64819092 70.20933594 162.53466309 69.98117188 163.44799805 69.74609375 C166.02332562 69.03934293 166.02332562 69.03934293 168.51538086 67.98193359 C171.009367 66.99629812 173.36840038 66.39238905 175.9921875 65.8515625 C176.93707031 65.65288574 177.88195312 65.45420898 178.85546875 65.24951172 C179.85191406 65.04342285 180.84835937 64.83733398 181.875 64.625 C188.63418113 63.19639335 195.33990791 61.71324198 202 59.875 C212.51092091 56.9871274 223.10662855 54.7433124 234 54 C231.36920467 60.2182435 231.36920467 60.2182435 228.22631836 62.01269531 C227.13782593 62.41633301 227.13782593 62.41633301 226.02734375 62.828125 C225.13595703 63.16038086 224.24457031 63.49263672 223.32617188 63.83496094 C215.02721578 66.74178848 206.70088482 69.56483292 198.36499023 72.36376953 C195.85535219 73.20759125 193.3475377 74.05667117 190.83984375 74.90625 C190.08646225 75.15741577 189.33308075 75.40858154 188.55686951 75.6673584 C183.88270071 77.25396873 179.42049965 79.09897203 174.95704651 81.20935059 C172.55821654 82.17848111 170.56063364 82.33040434 168 82 C170.10478639 87.98968468 172.31176875 93.8709733 174.9453125 99.6484375 C176.11958299 102.26662577 177.21851823 104.90977297 178.3125 107.5625 C180.33311249 112.44564684 182.43195813 117.28924179 184.5625 122.125 C186.81558756 127.24499896 188.9967503 132.3789646 191.04296875 137.5859375 C192.95900172 142.41903291 194.99264091 147.2043032 197 152 C197.83370215 153.99984629 198.6670375 155.99984553 199.5 158 C199.91507812 158.99515625 200.33015625 159.9903125 200.7578125 161.015625 C201.5680801 162.96230566 202.37550791 164.91017148 203.1796875 166.859375 C205.5725076 172.6459334 208.03961287 178.39432743 210.5625 184.125 C212.81542824 189.24507334 214.99674715 194.37895658 217.04296875 199.5859375 C218.54616908 203.37768364 220.12817128 207.13604805 221.703125 210.8984375 C222.59305507 213.02676423 223.47822539 215.15708558 224.359375 217.2890625 C224.79765625 218.34867188 225.2359375 219.40828125 225.6875 220.5 C226.28111328 221.93859375 226.28111328 221.93859375 226.88671875 223.40625 C227.93991766 225.95835772 227.93991766 225.95835772 229.14453125 228.15625 C230 230 230 230 230 233 C222.16966861 231.36500757 214.60096959 229.14689166 206.95947266 226.79492188 C201.28529389 225.09601458 195.70936854 223.70593562 189.86328125 222.734375 C172.9634608 219.83963361 172.9634608 219.83963361 169.38183594 216.48388672 C167.03991755 212.91281236 166.19126751 209.07589222 165.42773438 204.92089844 C164.75626942 201.90543825 163.38417558 199.3102941 162 196.5625 C159.8302256 191.94822525 157.93211531 187.28815869 156.1875 182.5 C151.67763548 170.15242739 146.42941898 158.07001101 140.8125 146.1875 C138.41253296 141.06625886 136.40569004 135.8472114 134.47338867 130.5378418 C131.03440198 121.20281028 126.98005408 112.11397821 123 103 C117.9859607 103.54768737 114.03495809 105.24322104 109.625 107.5625 C108.19683391 108.29730144 106.76844228 109.03166465 105.33984375 109.765625 C104.61651855 110.14009766 103.89319336 110.51457031 103.14794922 110.90039062 C101.13186829 111.93249207 99.10442249 112.93393264 97.06640625 113.921875 C53.9053055 134.89298976 8.57331723 165.83044974 -19.41796875 205.41796875 C-25.26777238 213.38127112 -30.04683811 216.71977405 -39.82421875 218.3828125 C-40.51563965 218.4849707 -41.20706055 218.58712891 -41.91943359 218.69238281 C-44.63220232 219.09347277 -47.31798532 219.60829353 -50.01123047 220.12231445 C-51.33853049 220.37438088 -52.66701182 220.62030355 -53.99658203 220.86010742 C-60.75039414 222.08469973 -67.3753047 223.73871909 -74.01220703 225.47949219 C-76.02582515 226.00676237 -78.04198116 226.52337683 -80.05859375 227.0390625 C-88.00000069 229.08593006 -88.00000069 229.08593006 -95.75 231.75 C-99 233 -99 233 -102 233 C-100.54680032 228.11196472 -98.48853712 223.60862287 -96.35546875 218.9921875 C-95.0078757 216.01738556 -93.74320281 213.01976708 -92.5 210 C-89.62802786 203.05196802 -86.53228159 196.22344029 -83.3046875 189.43359375 C-80.54561673 183.62177383 -77.8715033 177.84707265 -75.625 171.8125 C-73.24153685 165.4384829 -70.47475327 159.27774006 -67.65771484 153.08740234 C-64.19610801 145.47243783 -60.85228157 137.80964238 -57.53833008 130.12939453 C-55.54083583 125.508974 -53.51074536 120.90840682 -51.4140625 116.33203125 C-49.07837196 111.21862799 -46.93582074 106.04711544 -44.859375 100.82421875 C-42.95406509 96.1153814 -40.85773287 91.50960148 -38.6953125 86.9140625 C-35.37999679 79.86765 -32.22017276 72.76210042 -29.11697388 65.62008667 C-28.22108824 63.55846806 -27.32265879 61.49797381 -26.42358398 59.43774414 C-25.19888366 56.63114681 -23.97483725 53.82426626 -22.75146484 51.01708984 C-10.16373884 22.13967025 -10.16373884 22.13967025 -4.4375 10.0859375 C-2.88655452 6.75646216 -1.4468607 3.3760083 0 0 Z " fill="#FDFDFE" transform="translate(134,25)"/>
<path d="M0 0 C3.31484003 1.81927744 3.88242329 5.24968593 5 8.66015625 C5.51500053 10.13394469 6.03319564 11.60662096 6.5546875 13.078125 C6.80186523 13.78114746 7.04904297 14.48416992 7.30371094 15.20849609 C8.33892547 18.01722333 9.66993475 20.61517794 11.0703125 23.25390625 C12.9973473 27.07558871 14.45065845 31.11189917 16 35.09765625 C19.78049233 44.64837372 23.65805492 54.15292122 27.859375 63.52734375 C28.33503906 64.58953125 28.81070313 65.65171875 29.30078125 66.74609375 C30.27831176 68.92248244 31.26018384 71.09692561 32.24609375 73.26953125 C32.71660156 74.32398438 33.18710937 75.3784375 33.671875 76.46484375 C34.0956543 77.40440918 34.51943359 78.34397461 34.95605469 79.31201172 C36.0538678 82.24139609 36.58573962 85.00325676 37 88.09765625 C35.43759968 88.12496033 33.8750573 88.14418851 32.3125 88.16015625 C31.44238281 88.17175781 30.57226562 88.18335938 29.67578125 88.1953125 C27 88.09765625 27 88.09765625 24.66162109 87.62280273 C19.9279504 86.68883414 15.11826668 86.46167594 10.3125 86.09765625 C9.18086426 86.01080566 8.04922852 85.92395508 6.88330078 85.83447266 C-5.39829543 84.93243452 -17.69248881 84.47208709 -30 84.09765625 C-35.03016324 74.30363253 -39.79293926 64.3927654 -44.4375 54.41015625 C-44.96956055 53.27594238 -45.50162109 52.14172852 -46.04980469 50.97314453 C-46.54770508 49.89661621 -47.04560547 48.82008789 -47.55859375 47.7109375 C-48.00517334 46.74969971 -48.45175293 45.78846191 -48.91186523 44.7980957 C-49.96946606 42.17343277 -50.73376188 39.91626226 -51 37.09765625 C-49.3338285 35.05109465 -47.87044275 33.57933064 -45.875 31.91015625 C-45.32513428 31.43167236 -44.77526855 30.95318848 -44.20874023 30.46020508 C-42.49074995 28.98259203 -40.75072423 27.53626672 -39 26.09765625 C-38.02417969 25.29070312 -37.04835937 24.48375 -36.04296875 23.65234375 C-26.80694369 16.31678519 -16.91794225 9.91474356 -7.06201172 3.45117188 C-1.94933352 0.0951823 -1.94933352 0.0951823 0 0 Z " fill="#FCFDFE" transform="translate(235,148.90234375)"/>
<path d="M0 0 C17.49 0 34.98 0 53 0 C55.80161191 6.16354619 58.51535952 12.16871238 60.9855957 18.43945312 C63.88206785 25.75069257 66.97952385 32.97931918 70.11328125 40.19140625 C70.64390647 41.41470215 71.17450533 42.63800949 71.70507812 43.86132812 C72.51660163 45.73207203 73.32979877 47.60200753 74.14770508 49.4699707 C74.9537132 51.31244416 75.75236634 53.15812968 76.55078125 55.00390625 C77.02169189 56.08486572 77.49260254 57.1658252 77.9777832 58.27954102 C79 61 79 61 79 64 C78.36199463 64.15557373 77.72398926 64.31114746 77.06665039 64.47143555 C60.11895138 68.61491578 60.11895138 68.61491578 43.35571289 73.43823242 C39.58897438 74.59383149 35.9007977 75.44188587 32 76 C26.6767071 64.92062615 22.02410751 53.57328234 17.33203125 42.21679688 C16.00910452 39.02198702 14.67803455 35.8307065 13.34375 32.640625 C12.90901367 31.60075439 12.47427734 30.56088379 12.02636719 29.48950195 C11.20992617 27.53725843 10.39292312 25.5852498 9.57519531 23.63354492 C6.29896018 15.78625437 3.15948814 7.89872035 0 0 Z " fill="#FDFDFE" transform="translate(214,25)"/>
<path d="M0 0 C2.72592904 3.3153191 4.41321182 6.78912335 6.1875 10.6875 C6.7946956 12.02123309 7.40280677 13.35454964 8.01171875 14.6875 C8.33060059 15.38617188 8.64948242 16.08484375 8.97802734 16.8046875 C10.04398342 19.09448135 11.15102713 21.36044473 12.26953125 23.625 C12.64118408 24.38594971 13.01283691 25.14689941 13.39575195 25.9309082 C14.12101484 27.41302292 14.85498235 28.8909158 15.59838867 30.36401367 C18.04992786 35.42283123 18.04992786 35.42283123 17.8190918 38.09130859 C16.74542494 40.59322438 15.75737473 41.00295367 13.30078125 42.12109375 C12.51380859 42.49290771 11.72683594 42.86472168 10.91601562 43.24780273 C10.05685547 43.64040283 9.19769531 44.03300293 8.3125 44.4375 C0.31412428 48.25311139 -7.38509227 52.40392324 -15 56.9375 C-15.93674561 57.49300537 -16.87349121 58.04851074 -17.83862305 58.62084961 C-21.70093229 60.93412518 -25.43193646 63.24742144 -29 66 C-29.66 65.67 -30.32 65.34 -31 65 C-30.29423828 63.7315625 -30.29423828 63.7315625 -29.57421875 62.4375 C-25.25245056 54.57148146 -25.25245056 54.57148146 -21.86328125 46.27734375 C-18.85030368 38.32908164 -14.95965008 30.59763619 -10.8125 23.1875 C-8.48123068 19.01966041 -6.64319627 14.82982214 -4.9453125 10.37109375 C-3.5186576 6.79266597 -1.77254225 3.41847434 0 0 Z " fill="#1E84C6" transform="translate(144,104)"/>
<path d="M0 0 C0 3.58912412 -0.66436554 4.10857029 -3 6.6875 C-3.556875 7.31011719 -4.11375 7.93273437 -4.6875 8.57421875 C-5.120625 9.04472656 -5.55375 9.51523438 -6 10 C-6.99 9.67 -7.98 9.34 -9 9 C-6.03 6.03 -3.06 3.06 0 0 Z " fill="#3A94CD" transform="translate(134,207)"/>
</svg>
