<svg width="300" height="225" viewBox="0 0 300 225" fill="none" xmlns="http://www.w3.org/2000/svg">
<g clip-path="url(#clip0_3252_53691)">
<path d="M233.14 71.0069L209.432 14.5H162.949L191.467 82.5158C211.974 76.2987 225.986 72.7184 233.136 71.0069H233.14ZM181.749 125.075C172.982 130.029 152.786 142.365 135.648 159.673L154.56 200.067C174.913 200.296 195.208 201.679 214.951 204.222L181.749 125.075ZM15.1248 218.089C18.3808 217.119 21.6773 216.189 25.0097 215.3C25.1399 215.264 25.2657 215.232 25.3959 215.196C26.9902 214.77 28.5935 214.356 30.2014 213.947C30.2822 213.925 30.3675 213.907 30.4484 213.885C33.893 213.018 37.3781 212.187 40.8901 211.4C49.1088 209.559 57.5027 207.937 66.0357 206.544C100.999 161.079 141.019 131.449 200.84 104.882L244.476 208.961C262.853 212.541 280.472 217.2 296.864 222.932L240.555 88.706C257.473 82.3316 275.778 75.9887 295.696 69.4751L300.111 62.6111C257.652 71.254 212.584 82.7988 170.364 97.9419L135.365 14.5H91.5271L1.13505 220.605C0.784747 221.378 0.443424 222.155 0.111084 222.936C1.58865 222.42 3.07969 221.917 4.57523 221.413C5.00637 221.27 5.43751 221.13 5.86866 220.987C6.98694 220.618 8.10522 220.254 9.23248 219.9C9.67261 219.76 10.1082 219.621 10.5484 219.486C11.8328 219.087 13.1218 218.687 14.4197 218.3C14.6532 218.229 14.8823 218.157 15.1158 218.089H15.1248ZM100.568 84.7484L117.05 119.953C101.111 127.55 86.0615 135.806 72.2828 144.777L100.568 84.7484Z" fill="white"/>
<mask id="mask0_3252_53691" style="mask-type:alpha" maskUnits="userSpaceOnUse" x="0" y="14" width="301" height="209">
<path d="M233.14 71.0067L209.432 14.4998H162.949L191.467 82.5156C211.974 76.2984 225.986 72.7182 233.136 71.0067H233.14ZM181.749 125.074C172.982 130.029 152.786 142.365 135.648 159.673L154.56 200.066C174.913 200.296 195.208 201.679 214.951 204.222L181.749 125.074ZM15.1249 218.089C18.3809 217.119 21.6774 216.189 25.0098 215.299C25.14 215.263 25.2658 215.232 25.396 215.196C26.9904 214.769 28.5937 214.356 30.2015 213.947C30.2823 213.925 30.3676 213.907 30.4485 213.884C33.8931 213.017 37.3782 212.186 40.8903 211.4C49.1089 209.558 57.5028 207.937 66.0358 206.544C100.999 161.079 141.019 131.449 200.84 104.882L244.476 208.961C262.853 212.541 280.472 217.2 296.864 222.932L240.555 88.7058C257.473 82.3314 275.778 75.9885 295.696 69.4748L300.111 62.6108C257.652 71.2537 212.55 82.7121 170.329 97.8552L135.365 14.4998H91.5272L1.13517 220.605C0.784869 221.377 0.443546 222.154 0.111206 222.936C1.58877 222.419 3.07982 221.916 4.57535 221.413C5.00649 221.269 5.43763 221.13 5.86878 220.986C6.98706 220.618 8.10534 220.254 9.2326 219.899C9.67273 219.76 10.1084 219.621 10.5485 219.486C11.8329 219.086 13.1219 218.686 14.4198 218.3C14.6533 218.228 14.8824 218.156 15.1159 218.089H15.1249ZM100.568 84.7482L117.05 119.953C101.111 127.549 86.0616 135.806 72.2829 144.777L100.568 84.7482Z" fill="url(#paint0_linear_3252_53691)"/>
</mask>
<g mask="url(#mask0_3252_53691)">
<path opacity="0.1" d="M307.71 79.2658L310.651 57.1794C268.361 63.8311 43.1117 100.23 0.448007 223.017C21.9721 215.785 42.3061 209.772 65.1943 206.92C135.141 120.724 193.563 103.599 307.71 79.2658Z" fill="white"/>
</g>
<path d="M295.733 69.5258L299.85 62.7875C259.805 71.0232 49.1011 111.828 0.448242 222.636C20.6579 214.775 44.2358 210.283 65.9424 206.539C128.817 121.187 232.485 91.2383 295.733 69.5258Z" fill="white"/>
</g>
<defs>
<linearGradient id="paint0_linear_3252_53691" x1="208.158" y1="25.7304" x2="53.1722" y2="193.025" gradientUnits="userSpaceOnUse">
<stop stop-color="#B67EFF"/>
<stop offset="1" stop-color="#FF6335"/>
</linearGradient>
<clipPath id="clip0_3252_53691">
<rect width="300" height="225" fill="white"/>
</clipPath>
</defs>
</svg>
