<svg width="1100" height="200" viewBox="0 0 1100 200" fill="none" xmlns="http://www.w3.org/2000/svg">
<g clip-path="url(#clip0_3252_53672)">
<path d="M149.721 68.8057L134.488 32.5H104.623L122.946 76.2002C136.122 72.2056 145.124 69.9053 149.718 68.8057H149.721ZM116.702 103.544C111.07 106.728 98.0933 114.653 87.0822 125.774L99.2331 151.727C112.31 151.874 125.35 152.763 138.035 154.396L116.702 103.544ZM9.6463 163.306C11.7383 162.683 13.8563 162.085 15.9973 161.514C16.081 161.491 16.1618 161.47 16.2455 161.447C17.2699 161.173 18.3 160.908 19.333 160.645C19.3849 160.631 19.4398 160.619 19.4917 160.605C21.7049 160.048 23.9441 159.514 26.2005 159.009C31.481 157.825 36.8741 156.783 42.3566 155.889C64.8204 126.677 90.5333 107.64 128.968 90.5706L157.004 157.441C168.812 159.742 180.132 162.735 190.664 166.417L154.485 80.1774C165.355 76.0818 177.116 72.0065 189.914 67.8215L192.75 63.4114C165.47 68.9644 136.514 76.382 109.387 86.1114L86.9004 32.5H58.7348L0.657899 164.922C0.432829 165.419 0.213529 165.918 0 166.42C0.949337 166.088 1.90733 165.765 2.86821 165.442C3.14522 165.35 3.42223 165.26 3.69924 165.168C4.41773 164.931 5.13623 164.697 5.8605 164.469C6.14328 164.38 6.42317 164.29 6.70596 164.204C7.53121 163.947 8.35936 163.69 9.19328 163.442C9.34332 163.396 9.49048 163.349 9.64053 163.306H9.6463ZM64.5434 77.6346L75.1332 100.254C64.8925 105.134 55.2231 110.439 46.3703 116.203L64.5434 77.6346Z" fill="white"/>
<mask id="mask0_3252_53672" style="mask-type:alpha" maskUnits="userSpaceOnUse" x="0" y="32" width="193" height="135">
<path d="M149.721 68.8057L134.488 32.5H104.623L122.946 76.2002C136.122 72.2056 145.124 69.9053 149.718 68.8057H149.721ZM116.702 103.544C111.07 106.728 98.0933 114.653 87.0822 125.774L99.2331 151.727C112.31 151.874 125.35 152.763 138.035 154.396L116.702 103.544ZM9.6463 163.306C11.7383 162.683 13.8563 162.085 15.9973 161.514C16.081 161.491 16.1618 161.47 16.2455 161.447C17.2699 161.173 18.3 160.908 19.333 160.645C19.3849 160.631 19.4398 160.619 19.4917 160.605C21.7049 160.048 23.9441 159.514 26.2005 159.009C31.481 157.825 36.8741 156.783 42.3566 155.889C64.8204 126.677 90.5333 107.64 128.968 90.5706L157.004 157.441C168.812 159.742 180.132 162.735 190.664 166.417L154.485 80.1774C165.355 76.0818 177.116 72.0065 189.914 67.8215L192.75 63.4114C165.47 68.9644 136.514 76.382 109.387 86.1114L86.9004 32.5H58.7348L0.657899 164.922C0.432829 165.419 0.213529 165.918 0 166.42C0.949337 166.088 1.90733 165.765 2.86821 165.442C3.14522 165.35 3.42223 165.26 3.69924 165.168C4.41773 164.931 5.13623 164.697 5.8605 164.469C6.14328 164.38 6.42317 164.29 6.70595 164.204C7.53121 163.947 8.35936 163.69 9.19328 163.442C9.34332 163.396 9.49048 163.349 9.64053 163.306H9.6463ZM64.5434 77.6346L75.1332 100.254C64.8925 105.134 55.2231 110.439 46.3703 116.203L64.5434 77.6346Z" fill="url(#paint0_linear_3252_53672)"/>
</mask>
<g mask="url(#mask0_3252_53672)">
<path opacity="0.1" d="M197.632 74.112L199.521 59.9215C172.35 64.1952 27.6277 87.5813 0.216325 166.472C14.0456 161.826 27.1101 157.962 41.8158 156.13C86.7568 100.749 124.293 89.7459 197.632 74.112Z" fill="white"/>
</g>
<path d="M189.938 67.8538L192.583 63.5244C166.854 68.8159 31.4762 95.0328 0.216797 166.227C13.2015 161.176 28.3503 158.29 42.2968 155.885C82.6936 101.046 149.3 81.8041 189.938 67.8538Z" fill="white"/>
<path d="M265.55 147.282V92.4822H245.45V77.2822H301.55V92.4822H281.35V147.282H265.55ZM315.53 148.482C309.897 148.482 305.43 146.999 302.13 144.032C298.864 141.032 297.23 137.016 297.23 131.982C297.23 128.682 298.097 125.782 299.83 123.282C301.597 120.782 304.03 118.849 307.13 117.482C310.264 116.082 313.897 115.382 318.03 115.382C320.097 115.382 322.13 115.549 324.13 115.882C326.164 116.182 327.83 116.616 329.13 117.182V114.282C329.13 112.116 328.38 110.449 326.88 109.282C325.414 108.082 323.33 107.482 320.63 107.482C318.097 107.482 315.497 107.932 312.83 108.832C310.197 109.732 307.397 111.116 304.43 112.982L299.83 101.482C302.997 99.3822 306.48 97.7822 310.28 96.6822C314.114 95.5489 318.03 94.9822 322.03 94.9822C329.397 94.9822 334.897 96.6656 338.53 100.032C342.197 103.366 344.03 108.382 344.03 115.082V147.282H329.13V143.582C327.597 145.182 325.664 146.399 323.33 147.232C321.03 148.066 318.43 148.482 315.53 148.482ZM319.43 135.982C321.297 135.982 323.047 135.699 324.68 135.132C326.347 134.532 327.83 133.682 329.13 132.582V128.382C327.897 127.916 326.547 127.566 325.08 127.332C323.614 127.099 322.097 126.982 320.53 126.982C317.83 126.982 315.714 127.416 314.18 128.282C312.68 129.116 311.93 130.316 311.93 131.882C311.93 133.182 312.58 134.199 313.88 134.932C315.18 135.632 317.03 135.982 319.43 135.982ZM353.143 147.282V96.1822H368.143V147.282H353.143ZM360.643 91.6822C358.31 91.6822 356.293 90.8322 354.593 89.1322C352.893 87.4322 352.043 85.4156 352.043 83.0822C352.043 80.7822 352.876 78.8156 354.543 77.1822C356.21 75.5156 358.243 74.6822 360.643 74.6822C363.11 74.6822 365.16 75.4989 366.793 77.1322C368.426 78.7322 369.243 80.7156 369.243 83.0822C369.243 85.4822 368.41 87.5156 366.743 89.1822C365.076 90.8489 363.043 91.6822 360.643 91.6822ZM389.019 147.282L374.219 96.1822H389.019L394.119 115.882C394.352 116.782 394.602 117.999 394.869 119.532C395.169 121.032 395.419 122.416 395.619 123.682C395.885 122.482 396.185 121.116 396.519 119.582C396.885 118.016 397.185 116.782 397.419 115.882L402.419 96.1822H415.819L420.719 115.882C420.952 116.782 421.252 118.016 421.619 119.582C421.985 121.116 422.285 122.482 422.519 123.682C422.719 122.416 422.952 121.032 423.219 119.532C423.519 118.032 423.785 116.816 424.019 115.882L429.419 96.1822H444.219L429.219 147.282H416.019L411.019 124.882C410.819 124.016 410.535 122.716 410.169 120.982C409.802 119.216 409.485 117.682 409.219 116.382C408.985 117.682 408.669 119.216 408.269 120.982C407.869 122.716 407.569 124.016 407.369 124.882L402.319 147.282H389.019ZM464.398 148.482C458.764 148.482 454.298 146.999 450.998 144.032C447.731 141.032 446.098 137.016 446.098 131.982C446.098 128.682 446.964 125.782 448.698 123.282C450.464 120.782 452.898 118.849 455.998 117.482C459.131 116.082 462.764 115.382 466.898 115.382C468.964 115.382 470.998 115.549 472.998 115.882C475.031 116.182 476.698 116.616 477.998 117.182V114.282C477.998 112.116 477.248 110.449 475.748 109.282C474.281 108.082 472.198 107.482 469.498 107.482C466.964 107.482 464.364 107.932 461.698 108.832C459.064 109.732 456.264 111.116 453.298 112.982L448.698 101.482C451.864 99.3822 455.348 97.7822 459.148 96.6822C462.981 95.5489 466.898 94.9822 470.898 94.9822C478.264 94.9822 483.764 96.6656 487.398 100.032C491.064 103.366 492.898 108.382 492.898 115.082V147.282H477.998V143.582C476.464 145.182 474.531 146.399 472.198 147.232C469.898 148.066 467.298 148.482 464.398 148.482ZM468.298 135.982C470.164 135.982 471.914 135.699 473.548 135.132C475.214 134.532 476.698 133.682 477.998 132.582V128.382C476.764 127.916 475.414 127.566 473.948 127.332C472.481 127.099 470.964 126.982 469.398 126.982C466.698 126.982 464.581 127.416 463.048 128.282C461.548 129.116 460.798 130.316 460.798 131.882C460.798 133.182 461.448 134.199 462.748 134.932C464.048 135.632 465.898 135.982 468.298 135.982ZM502.008 147.282V96.1822H517.008V100.882C518.674 98.9156 520.674 97.4489 523.008 96.4822C525.341 95.4822 528.008 94.9822 531.008 94.9822C536.408 94.9822 540.691 96.6656 543.858 100.032C547.024 103.399 548.608 107.982 548.608 113.782V147.282H533.608V121.182C533.608 116.916 533.008 113.899 531.808 112.132C530.641 110.366 528.608 109.482 525.708 109.482C522.674 109.482 520.458 110.399 519.058 112.232C517.691 114.066 517.008 116.982 517.008 120.982V147.282H502.008ZM569.213 147.282L597.113 77.2822H612.213L640.213 147.282H622.913L617.713 133.982H591.613L586.513 147.282H569.213ZM596.913 119.382H612.313L606.613 105.382C606.413 104.916 606.18 104.399 605.913 103.832C605.68 103.232 605.447 102.632 605.213 102.032C604.98 101.399 604.78 100.816 604.613 100.282C604.447 100.816 604.247 101.399 604.013 102.032C603.78 102.632 603.53 103.232 603.263 103.832C603.03 104.399 602.813 104.916 602.613 105.382L596.913 119.382ZM643.839 147.282V77.2822H659.639V147.282H643.839ZM680.483 147.282L708.383 77.2822H723.483L751.483 147.282H734.183L728.983 133.982H702.883L697.783 147.282H680.483ZM708.183 119.382H723.583L717.883 105.382C717.683 104.916 717.449 104.399 717.183 103.832C716.949 103.232 716.716 102.632 716.483 102.032C716.249 101.399 716.049 100.816 715.883 100.282C715.716 100.816 715.516 101.399 715.283 102.032C715.049 102.632 714.799 103.232 714.533 103.832C714.299 104.399 714.083 104.916 713.883 105.382L708.183 119.382ZM776.127 148.482C771.194 148.482 766.927 147.399 763.327 145.232C759.727 143.066 756.944 139.982 754.977 135.982C753.011 131.982 752.027 127.249 752.027 121.782C752.027 116.349 753.011 111.632 754.977 107.632C756.977 103.599 759.777 100.482 763.377 98.2822C767.011 96.0822 771.261 94.9822 776.127 94.9822C781.994 94.9822 786.827 96.3489 790.627 99.0822C794.461 101.816 797.227 105.882 798.927 111.282L784.627 115.982C783.827 113.882 782.711 112.266 781.277 111.132C779.844 109.966 778.194 109.382 776.327 109.382C773.694 109.382 771.511 110.549 769.777 112.882C768.077 115.216 767.227 118.182 767.227 121.782C767.227 125.382 768.061 128.332 769.727 130.632C771.394 132.932 773.527 134.082 776.127 134.082C778.127 134.082 779.844 133.482 781.277 132.282C782.711 131.049 783.827 129.216 784.627 126.782L798.927 130.882C797.227 136.782 794.477 141.199 790.677 144.132C786.877 147.032 782.027 148.482 776.127 148.482ZM821.566 148.482C815.932 148.482 811.466 146.999 808.166 144.032C804.899 141.032 803.266 137.016 803.266 131.982C803.266 128.682 804.132 125.782 805.866 123.282C807.632 120.782 810.066 118.849 813.166 117.482C816.299 116.082 819.932 115.382 824.066 115.382C826.132 115.382 828.166 115.549 830.166 115.882C832.199 116.182 833.866 116.616 835.166 117.182V114.282C835.166 112.116 834.416 110.449 832.916 109.282C831.449 108.082 829.366 107.482 826.666 107.482C824.132 107.482 821.532 107.932 818.866 108.832C816.232 109.732 813.432 111.116 810.466 112.982L805.866 101.482C809.032 99.3822 812.516 97.7822 816.316 96.6822C820.149 95.5489 824.066 94.9822 828.066 94.9822C835.432 94.9822 840.932 96.6656 844.566 100.032C848.232 103.366 850.066 108.382 850.066 115.082V147.282H835.166V143.582C833.632 145.182 831.699 146.399 829.366 147.232C827.066 148.066 824.466 148.482 821.566 148.482ZM825.466 135.982C827.332 135.982 829.082 135.699 830.716 135.132C832.382 134.532 833.866 133.682 835.166 132.582V128.382C833.932 127.916 832.582 127.566 831.116 127.332C829.649 127.099 828.132 126.982 826.566 126.982C823.866 126.982 821.749 127.416 820.216 128.282C818.716 129.116 817.966 130.316 817.966 131.882C817.966 133.182 818.616 134.199 819.916 134.932C821.216 135.632 823.066 135.982 825.466 135.982ZM877.383 148.482C870.749 148.482 865.583 146.149 861.883 141.482C858.216 136.782 856.383 130.182 856.383 121.682C856.383 116.449 857.283 111.832 859.083 107.832C860.883 103.799 863.366 100.649 866.533 98.3822C869.733 96.1156 873.416 94.9822 877.583 94.9822C881.849 94.9822 885.183 96.6822 887.583 100.082V81.7822L902.583 75.0822V147.282H887.583V142.982C885.749 146.649 882.349 148.482 877.383 148.482ZM879.983 133.982C881.949 133.982 883.499 133.766 884.633 133.332C885.766 132.866 886.749 132.116 887.583 131.082V112.682C886.749 111.682 885.649 110.899 884.283 110.332C882.916 109.766 881.483 109.482 879.983 109.482C877.249 109.482 875.133 110.532 873.633 112.632C872.133 114.699 871.383 117.716 871.383 121.682C871.383 124.449 871.699 126.749 872.333 128.582C872.966 130.382 873.916 131.732 875.183 132.632C876.449 133.532 878.049 133.982 879.983 133.982ZM934.474 148.482C929.408 148.482 925.041 147.416 921.374 145.282C917.741 143.149 914.941 140.082 912.974 136.082C911.041 132.082 910.074 127.282 910.074 121.682C910.074 116.249 911.058 111.532 913.024 107.532C915.024 103.532 917.841 100.449 921.474 98.2822C925.141 96.0822 929.474 94.9822 934.474 94.9822C938.808 94.9822 942.708 95.8656 946.174 97.6322C949.674 99.3656 952.441 102.032 954.474 105.632C956.541 109.199 957.574 113.716 957.574 119.182C957.574 120.116 957.558 121.282 957.524 122.682C957.491 124.049 957.374 125.416 957.174 126.782H924.674C924.674 128.616 925.074 130.216 925.874 131.582C926.674 132.916 927.808 133.949 929.274 134.682C930.741 135.416 932.474 135.782 934.474 135.782C937.074 135.782 939.241 135.366 940.974 134.532C942.741 133.699 944.441 132.316 946.074 130.382L954.674 138.982C952.274 141.882 949.424 144.199 946.124 145.932C942.824 147.632 938.941 148.482 934.474 148.482ZM924.874 115.582H943.274C943.008 113.816 942.491 112.349 941.724 111.182C940.958 110.016 939.941 109.149 938.674 108.582C937.408 107.982 935.874 107.682 934.074 107.682C931.641 107.682 929.591 108.382 927.924 109.782C926.258 111.182 925.241 113.116 924.874 115.582ZM964.508 147.282V96.1822H979.508V100.882C981.274 98.7822 983.091 97.2822 984.958 96.3822C986.824 95.4489 988.974 94.9822 991.408 94.9822C994.474 94.9822 997.008 95.5656 999.008 96.7322C1001.04 97.8989 1002.61 99.6822 1003.71 102.082C1005.47 99.7822 1007.72 98.0322 1010.46 96.8322C1013.19 95.5989 1016.31 94.9822 1019.81 94.9822C1026.57 94.9822 1031.54 96.6656 1034.71 100.032C1037.91 103.399 1039.51 108.682 1039.51 115.882V147.282H1024.51V121.382C1024.51 117.116 1023.94 114.066 1022.81 112.232C1021.67 110.399 1019.77 109.482 1017.11 109.482C1015.24 109.482 1013.74 109.849 1012.61 110.582C1011.51 111.316 1010.71 112.516 1010.21 114.182C1009.74 115.849 1009.51 118.082 1009.51 120.882V147.282H994.508V121.382C994.508 117.116 993.941 114.066 992.808 112.232C991.674 110.399 989.774 109.482 987.108 109.482C984.308 109.482 982.341 110.332 981.208 112.032C980.074 113.732 979.508 116.682 979.508 120.882V147.282H964.508ZM1054.49 166.682L1062.19 146.682L1042.89 96.1822H1058.49L1068.59 122.782C1068.85 123.382 1069.14 124.132 1069.44 125.032C1069.74 125.932 1069.99 126.782 1070.19 127.582C1070.39 126.782 1070.64 125.949 1070.94 125.082C1071.27 124.182 1071.55 123.416 1071.79 122.782L1081.79 96.1822H1097.29L1070.09 166.682H1054.49Z" fill="white"/>
</g>
<defs>
<linearGradient id="paint0_linear_3252_53672" x1="133.67" y1="39.7157" x2="34.0917" y2="147.202" gradientUnits="userSpaceOnUse">
<stop stop-color="#B67EFF"/>
<stop offset="1" stop-color="#FF6335"/>
</linearGradient>
<clipPath id="clip0_3252_53672">
<rect width="1100" height="200" fill="white"/>
</clipPath>
</defs>
</svg>
