<svg xmlns="http://www.w3.org/2000/svg" viewBox="0 0 854.5 679" xml:space="preserve">
<style>
  .st0{fill:#66C2D9;}
  .st1{fill:#53B0C0;}
</style>
	<g>
		<path class="st0" d="M372.3,452.6c-2.2,1.8-4.8,1.3-7.3,1.4c-18.9,0-37.7,0-56.6,0c-3.2,0-6.3,0.1-8.3,3.5c-1.8,3-2.4,6.5-0.9,9.7
			c1.6,3.5,4.6,4.6,7.9,4.6c14.4,0,28.9,0,43.3,0c2.1,0,4.2-0.3,6.2,0.9c3.2,1.8,5.8,4.6,5,8.9c-0.8,4.4-2.5,8.6-7.7,8
			c-2.8-0.3-5.7-0.2-8.6,0.7c-4.5,1.4-5.7,4.9-5.1,9.7c0.6,4.7,3.1,7.1,7.1,7.1c10.2,0,20.4,0.2,30.6,0c6.2-0.1,12.2,0.6,18.3,1.4
			c4.3,0.6,6.1,4.1,6,8.4c-0.1,4.3-2.1,7.8-6.5,7.9c-1.3,0-2.7,0-4,0c-16.3,0-32.6,0-48.8,0c-1.7,0-3.5-0.1-5.2,0.4
			c-4.3,1.3-8.2,3.2-7.9,9.7c0.2,4.9,4.1,8.8,9.3,8.9c8.3,0.2,16.5,0,24.8,0.1c6.2,0,9.4,2.6,9.6,7.8c0.3,5.3-4,9.8-9.8,9.9
			c-17.9,0.1-35.8,0-53.7,0c-1.7,0-3.5-0.2-5.2,0.2c-4.2,0.9-6.1,4.2-6.3,9.1c-0.2,5.2,2.7,7.2,6.3,8.2c1.7,0.4,3.4,0.2,5.2,0.2
			c35.2,0,70.4,0,105.6,0c4.7,0,9.1,0.6,9.8,7.6c0.7,6.7-2.4,10.1-9.4,10.1c-17.5,0.1-35,0-52.5,0c-1.5,0-3.1-0.1-4.6,0.1
			c-4.8,0.6-7.9,3.7-8.3,9.5c-0.4,5,3.1,8.2,8.6,8.2c36.4,0,72.7,0,109.1,0c2.9,0,5.7,0,8.5,1.3c3.5,1.6,4,5.1,4.1,8.8
			c0.2,3.9-1.2,6.4-4.4,7.7c-5.3,2.1-10.7,1-16,1.1c-4.7,0.1-8,1.8-8.4,7.8c-0.4,5.2,3.4,9.6,8.2,10c0.8,0.1,1.5,0,2.3,0
			c72.7,0,145.4,0,218.1,0c7.2,0,10.1-2.5,10.2-8.5c0.1-5.7-2.2-9-7.1-9.2c-4.4-0.1-8.9-0.1-13.3,0c-2.6,0.1-5-0.4-7.3-1.7
			c-2.7-1.5-4.6-3.8-4.6-7.8c0-4,1.9-6.4,4.6-7.9c2.6-1.5,5.5-1.7,8.4-1.7c20.2,0.1,40.4,0,60.6,0c7.3,0,9.5-1.9,9.5-8.2
			c0.1-6.4-2.9-9.4-9.5-9.5c-7.1-0.1-14.2-0.1-21.4,0c-5,0.1-8.2-2.1-8.4-8.4c-0.2-5.9,2.6-9.2,8.4-9.3c20.8-0.1,41.5-0.1,62.3-0.1
			c1.5,0,3.1,0.1,4.6,0c4.8-0.3,7.7-3.2,7.7-8.9c0-5.7-3-8.7-7.8-8.7c-9.4-0.1-18.9,0-28.3-0.1c-1.7,0-3.5,0.2-5.2-0.3
			c-4.5-1.2-6.3-5-5.9-10.1c0.4-4.8,2.9-7.2,7-7.3c8.1-0.1,16.2,0,24.2,0c10,0,20,0.1,30,0c6-0.1,10.3-4.2,10.1-9.4
			c-0.3-6.5-5.5-10.6-11.8-9.2c-5.6,1.2-11-0.6-16.5-0.9c-3.3-0.2-5.1-4.4-4.7-8.2c0.6-5.6,3.8-8.8,8.7-9c7.7-0.2,15.4,0,23.1,0
			c2.9,0,5.7-0.2,8.6,0c4.9,0.3,7.2-2.9,7.7-7.9c0.5-4.5-3.7-9.4-7.9-9.8c-1.3-0.1-2.7,0-4,0c-17.5,0-35-0.1-52.5,0.1
			c-4.8,0.1-7.2-2.6-8-7.7c-0.8-5.3,2.1-8,5.9-9.4c1.8-0.6,3.8-0.7,5.7-0.7c11.2-0.1,22.3,0,33.5-0.1c6.1-0.1,9.2-3,9.1-8.5
			c-0.1-6.2-3-9.2-9.2-9.2c-17.7-0.1-35.4,0-53.1-0.1c-2.1,0-4.9,1.4-5.7-2.6c-2.8-0.5-2.7,2.5-3.6,4.2c-2.5,4.7-3.3,10.4-6.3,14.8
			c-0.9,1.2-1.7,2.3-2.7,3.4c-2.4,3.3-5,6.3-7.6,9.2c-1.4,1.6-2.6,3.5-4.2,4.9c-0.6,0.5-1.1,1-1.7,1.6c-0.7,0.6-1.5,1.2-2.3,1.8
			c-1,0.7-1.9,1.6-2.9,2.2c-0.4,0.3-0.8,0.6-1.2,0.9c-1.8,1.6-4.1,2.2-6,3.6c-4.9,2.7-10.6,3.3-15.1,7.5c-2.2,2.8-0.6,5.5,0,8.3
			c1.2,5.4,0.2,7.4-4.5,8.7c-4.2,1.2-8.4,1.2-12.6,1.3c-2.7,0-5.4-0.1-8.1,0.3c-4.5,0.8-7.4,3.8-8.1,9.1c-0.8,5.5,1.8,9,5.7,11.4
			c3.8,2.3,7.9,1.6,11.9,1.9c3.4,0.3,7,0.8,6.9,6.1c-0.1,5-3.4,6.3-6.9,6.4c-15.4,0.5-30.8,0.1-46.2,0.2c-2.9,0-5.8-0.2-8.6,0.3
			c-5.3,0.9-8,4.5-8.2,10.3c-0.2,6,2.8,10.4,7.9,11.5c4.4,0.9,8.8,0.4,13.3,0.5c7.1,0.1,14.2-0.1,21.4,0.1c3.7,0.1,7.4,1.1,7.4,6.5
			c0,5.6-4,5.7-7.5,6.1c-1.3,0.1-2.7,0.1-4,0.1c-40.8,0-81.6,0-122.4,0c-2.5,0-5,0.2-7.5-0.5c-2.6-0.7-4.7-2.3-4.6-5.9
			c0-3.6,2-5.3,4.7-5.9c3.4-0.8,6.9-0.4,10.4-0.5c2.9,0,5.8,0.2,8.6-0.7c4.1-1.4,6.5-4.8,6.7-9.9c0.3-5.1-1.8-8.7-5.8-10.7
			c-2.7-1.4-5.6-1.3-8.5-1.3c-10.8-0.1-21.5,0-32.3-0.1c-2.3,0-4.6,0.1-6.8-0.9c-2.2-1-3.5-2.7-3.5-5.6c0-2.8,1.3-4.7,3.5-5.6
			c1.8-0.7,3.8-0.7,5.6-1.5c5-1.9,7.8-6.6,7.3-12.3c-0.4-5.3-3.1-8.3-8.5-9.3c-4.4-0.8-8.8-1.1-13.2-0.7c-3.4,0.3-7.1-0.1-10-2.5
			c-3.7-3-0.8-7-0.7-10.6c0-1-0.2-1.8-0.7-2.5c-7-3-14.3-1.7-21.5-1.6c-12.2,0.2-24.4,1-36.6-0.5c-6.6-3.9-7-8.4-1.1-13.4
			c1.3-0.9,2.9-1.1,4.2-2.1c1.2-1.4,2.1,0,3.2,0.6c2.1,0.7,4.2,0.8,6.2-0.7c1.3-1.5,1.5-3.3,1.5-5.3c0-1.9-0.4-3.7-1.1-5.4
			c-1.9-4.2-4.2-8-7.9-10.4c-0.6-0.3-1.2-0.4-1.9-0.5c-9.5-0.8-19.1-0.2-28.6-0.1c-8.5,0.1-8.5,0.1-8.9-9.9c0-1.4-0.1-2.7-0.5-4
			C373.4,453.6,372.9,453,372.3,452.6z"/>
		<path class="st1" d="M467.2,508.4c-2.1,3.5-4.9,7-2.9,11.7c2.8,6.4,8.7,5.6,13.3,5.6c4.1,0,8.3,0.1,12.5,0.3
			c5,0.1,8.3,1.8,8.3,8.4c0,5.6-3.2,9.2-8.7,9.3c-4.6,0-8,1.6-8.6,7.6c-0.7,6.5,2.3,10.1,8.8,10.2c13.3,0.1,26.6,0,39.8,0.1
			c6.1,0,9,2.8,9.1,8.5c0.1,5.8-2.2,9-7.2,9.2c-5.2,0.2-10.4-0.1-15.6,0.1c-4.6,0.2-8.4,1.9-8.5,8.5c-0.1,5.9,2.6,9.1,8.6,9.1
			c44.6,0.1,89.3,0.1,133.9,0c4.6,0,8.6-1.5,8.7-8.2c0.2-6.2-2.8-9.4-9-9.5c-11.2-0.1-22.3,0-33.5-0.1c-5.8,0-8.3-3-8.3-9.2
			c0-6.5,3.2-8.5,8.2-8.5c17.3,0.1,34.6,0,51.9,0c2.3,0,4.6,0.1,6.7-1.3c3.3-2.1,4.6-5.5,4-9.6c-0.5-4.1-3.1-6.3-6.4-6.7
			c-3.4-0.4-6.9,0-10.4-0.2c-5.2-0.3-9.2-4.5-9-9.3c0.2-5.6,3.2-8.3,9.2-8.4c6.5-0.1,13,0.3,19.5-1.2c5.8-1.4,7.9-5.8,5.5-12.2
			c-0.7-2-3.9-4-0.7-6.7c-3.3-3.6-6.9-1-10.3-0.6c-3,1.1-6,1.2-9.1,1.1c-50-0.9-99.9-0.8-149.9-0.5c-13.8,0.1-27.6-0.2-41.4-0.1
			C472.8,505.8,469.6,505.3,467.2,508.4z"/>
	</g>
</svg>