<svg xmlns="http://www.w3.org/2000/svg" viewBox="0 0 854.5 679" xml:space="preserve">
<style>
  .st2{fill:none;stroke:#1E2224;stroke-width:9.9699;stroke-miterlimit:10;}
  .st3{fill:#804232;}
  .st4{fill:#904337;}
  .st5{fill:#FFFFFF;}
  .st6{fill:#EDEDEE;}
  .st7{fill:#9E4D3E;}
  .st8{fill:#C95553;stroke:#904337;stroke-width:19.9399;stroke-miterlimit:10;}
  .st9{fill:none;stroke:#904337;stroke-width:9.9699;stroke-miterlimit:10;}
  .st10{fill:#1E2224;}
  .st11{fill:#E39B6A;}
</style>
	<g>
		<g>
			<line class="st2" x1="333.2" y1="440.6" x2="410.2" y2="126.6"/>
			<line class="st2" x1="412.5" y1="130.4" x2="379.6" y2="443.7"/>
			<line class="st2" x1="406.7" y1="126.6" x2="492.5" y2="443"/>
			<line class="st2" x1="634.1" y1="162.2" x2="596.2" y2="336.2"/>
			<line class="st2" x1="220.2" y1="170.7" x2="262" y2="360.2"/>
			<line class="st2" x1="219.4" y1="179.2" x2="186.3" y2="363.3"/>
			<path class="st2" d="M218.7,186.1c0,0-46.4,99-75,128.4s-58.8,50.3-67.3,53.4"/>
		</g>
		<path class="st3" d="M219.1,367.7L219.1,367.7c-3.5,0-6.4-2.9-6.4-6.4V120c0-3.5,2.9-6.4,6.4-6.4h0c3.5,0,6.4,2.9,6.4,6.4v241.4
			C225.5,364.8,222.6,367.7,219.1,367.7z"/>
		<path class="st3" d="M410,447.2L410,447.2c-3.5,0-6.4-2.9-6.4-6.4V44c0-3.5,2.9-6.4,6.4-6.4l0,0c3.5,0,6.4,2.9,6.4,6.4v396.9
			C416.4,444.4,413.5,447.2,410,447.2z"/>
		<g>
			<path class="st3" d="M635.1,340.5L635.1,340.5c-3.5,0-6.4-2.9-6.4-6.4V92.7c0-3.5,2.9-6.4,6.4-6.4l0,0c3.5,0,6.4,2.9,6.4,6.4
				v241.4C641.5,337.6,638.6,340.5,635.1,340.5z"/>
			<path class="st4" d="M674.3,299.1h-83.5c-4,0-7.3-3.3-7.3-7.3v0c0-4,3.3-7.3,7.3-7.3h83.5c4,0,7.3,3.3,7.3,7.3v0
				C681.7,295.8,678.4,299.1,674.3,299.1z"/>
			<path class="st4" d="M668.9,335.4L668.9,335.4c-2.6,0-4.6-2.1-4.6-4.6v-31.7c0-2.6,2.1-4.6,4.6-4.6l0,0c2.6,0,4.6,2.1,4.6,4.6
				v31.7C673.6,333.3,671.5,335.4,668.9,335.4z"/>
			<path class="st4" d="M597.8,333.1L597.8,333.1c-2.6,0-4.6-2.1-4.6-4.6v-31.7c0-2.6,2.1-4.6,4.6-4.6l0,0c2.6,0,4.6,2.1,4.6,4.6
				v31.7C602.4,331,600.3,333.1,597.8,333.1z"/>
			<path class="st4" d="M614.8,335.8L614.8,335.8c-2.6,0-4.6-2.1-4.6-4.6v-31.7c0-2.6,2.1-4.6,4.6-4.6h0c2.6,0,4.6,2.1,4.6,4.6v31.7
				C619.4,333.7,617.3,335.8,614.8,335.8z"/>
			<path class="st4" d="M651.5,333.9L651.5,333.9c-2.6,0-4.6-2.1-4.6-4.6v-31.7c0-2.6,2.1-4.6,4.6-4.6l0,0c2.6,0,4.6,2.1,4.6,4.6
				v31.7C656.2,331.8,654.1,333.9,651.5,333.9z"/>
		</g>
		<g>
			<path class="st4" d="M240.3,337.8h-89c-3.8,0-7-3.1-7-7l0,0c0-3.8,3.1-7,7-7h89c3.8,0,7,3.1,7,7l0,0
				C247.3,334.6,244.2,337.8,240.3,337.8z"/>
			<path class="st4" d="M152.5,358.6L152.5,358.6c-2.6,0-4.6-2.1-4.6-4.6v-18.6c0-2.6,2.1-4.6,4.6-4.6l0,0c2.6,0,4.6,2.1,4.6,4.6
				V354C157.2,356.5,155.1,358.6,152.5,358.6z"/>
			<path class="st4" d="M236.5,361.7L236.5,361.7c-2.6,0-4.6-2.1-4.6-4.6v-18.6c0-2.6,2.1-4.6,4.6-4.6h0c2.6,0,4.6,2.1,4.6,4.6v18.6
				C241.1,359.7,239,361.7,236.5,361.7z"/>
			<path class="st4" d="M171.9,360.2L171.9,360.2c-2.6,0-4.6-2.1-4.6-4.6V337c0-2.6,2.1-4.6,4.6-4.6h0c2.6,0,4.6,2.1,4.6,4.6v18.6
				C176.5,358.1,174.4,360.2,171.9,360.2z"/>
			<path class="st4" d="M190.8,360.6L190.8,360.6c-2.6,0-4.6-2.1-4.6-4.6v-18.6c0-2.6,2.1-4.6,4.6-4.6h0c2.6,0,4.6,2.1,4.6,4.6
				l0,18.6C195.5,358.5,193.4,360.6,190.8,360.6z"/>
			<path class="st4" d="M210.6,361L210.6,361c-2.6,0-4.6-2.1-4.6-4.6v-18.6c0-2.6,2.1-4.6,4.6-4.6l0,0c2.6,0,4.6,2.1,4.6,4.6v18.6
				C215.2,358.9,213.1,361,210.6,361z"/>
		</g>
		<g>
			<g>
				<path class="st5" d="M547.5,287.9c-25.4,0-46-20.6-46-46c0-25.4,20.6-46,46-46H365.3v92.1H547.5z"/>
				<path class="st5" d="M320.8,241.8c0,25.4,20.6,46,46,46c0.1,0,0.3,0,0.4,0c25.2-0.2,45.7-20.7,45.7-46c0-25.3-20.4-45.8-45.7-46
					c-0.1,0-0.2,0-0.4,0C341.4,195.8,320.8,216.4,320.8,241.8z"/>
			</g>
			<g>
				<path class="st6" d="M423.5,287.9c-11.7,0-21.1-20.6-21.1-46c0-25.4,9.5-46,21.1-46h-83.6v92.1H423.5z"/>
				<path class="st6" d="M319.5,241.8c0,25.4,9.5,46,21.1,46c0.1,0,0.1,0,0.2,0c11.6-0.2,21-20.7,21-46c0-25.3-9.4-45.8-21-46
					c-0.1,0-0.1,0-0.2,0C328.9,195.8,319.5,216.4,319.5,241.8z"/>
			</g>
		</g>
		<g>
			<rect x="204" y="467" class="st7" width="413.1" height="74.3"/>
			<rect x="590.4" y="432.1" class="st7" width="104.4" height="59.2"/>
			<rect x="592.7" y="363.7" class="st7" width="19.7" height="30.2"/>
			<rect x="160.3" y="391.5" class="st7" width="99.8" height="51.1"/>
			<rect x="592.7" y="330" class="st7" width="98.6" height="56.9"/>
			<path class="st7" d="M153.6,378.8c2.9,0.7,5.7,1.9,8.6,1.9c15,0.2,30.5-2.3,44.9,0.7c19.8,4.1,39.4,3.6,59.1,4.4
				c2.1,0.1,4.4,2.2,6.2,3.8c9.8,8.5,20.5,15.6,28.1,27c6.4,9.6,18.6,10.9,30,10.8c50.1-0.2,100.2-0.3,150.3-0.4
				c8.5,0,17,0.4,25.4-0.5c12.8-1.4,21.7-8.7,27.7-20c1.5-2.7,4.1-5,6.6-7c6.5-5.2,17.1-9,19-15.5c2.7-9.3,5.5-13.4,15-12.8
				c0.8,0,2.5-4.1,2.5-6.3c-0.1-5.9,1.6-9.3,8.2-8.4c6,0.9,8.8-1.2,8.7-7.8c0-1.9,3.7-5,6-5.4c4.9-0.9,10.2,0,15.2-0.3
				c20.8-1.4,41.6-3,62.4-4.7c2.6-0.2,5.2-1.8,8-2.9c12.2,21,4.2,43.7,6.5,65.3c0.3,3.1,0,6.2,0,10c15.3,2,27.9,8.2,36.5,20.9
				c5.9,8.7,8.4,18.3,7.9,28.9c-0.9,22.1-15.2,36.9-44.4,44.9c0,13.3-0.3,26.9,0.1,40.4c0.2,6.9-2.4,8.7-8.8,8.6
				c-13.9-0.3-27.8-0.4-41.6,0.4c-13.6,0.8-20.9,9.4-21.7,24.6c5,0,10-0.1,14.9,0c9.3,0.2,14.8,4.5,14.8,11.6
				c0,7.2-5.3,11.5-14.8,11.5c-61.7,0-123.4-0.1-185.1-0.1c-64,0-127.9,0.1-191.9,0.1c-54.7,0-97.8-35.3-108.3-88.7
				c-1.2-6-1.1-12.4-1.1-18.6c-0.1-34-0.2-67.9,0.1-101.9c0.1-13,1.4-26,1.4-38.9c0-4.8,57.8,22.8,45.2,19.3
				c10.1-3.3-2.4-8.4-3-12.9c-0.6-4.6-4.9-3.1-5.9,2.5c-2.4,13-9.5,4.9-8.8,1.9c1.2-5.1-13.3,7.5-16.7,7.3c1-8.4-4.1-25.5-4.2-24.3
				c-0.3,6.4,3.3,22.4,5,24 M669.8,457.1c-0.2-2.1,0.2-4.5-0.8-5.9c-2.1-2.9-5.5-7.7-7.4-7.2c-3.2,0.7-5.8,4.7-8.2,7.7
				c-0.9,1.1-0.4,3.3-0.4,5c0.2,6.4-0.7,14.8,8.1,15C670.5,471.9,668.7,463,669.8,457.1z M641.4,457.8c0,0-0.1,0-0.1,0
				c0-1.7,0-3.4,0-5.1c-0.1-5.1-2-9.2-7.6-9.3c-5.5-0.1-7.8,3.8-7.9,9c-0.1,4.2-0.8,8.8,0.5,12.6c0.9,2.8,4.6,6.4,7.1,6.4
				c2.6,0,5.8-3.5,7.5-6.2C642,463.5,641.2,460.4,641.4,457.8z M613.9,458.3c-0.2-2.5,0.3-5.3-0.8-6.9c-2.2-3-5.4-5.3-8.1-7.9
				c-2.2,2.8-5.4,5.3-6.4,8.5c-1.1,3.6-1.2,8.1,0,11.7c1,3.2,4.3,5.6,6.6,8.4c2.7-2.4,5.8-4.5,7.9-7.4
				C614.2,463.1,613.7,460.3,613.9,458.3z M679.3,457.6c2.9,5.2,5.3,9.4,7.6,13.6c1.8-4.5,5.1-9,5.1-13.5c-0.1-4.3-3.6-8.6-5.6-12.9
				C684.2,448.7,682,452.6,679.3,457.6z M241.6,504.8c0.9-0.9,1.8-1.8,2.7-2.7c-1.7-4-2.7-8.6-5.4-11.6c-1.2-1.4-7.4-0.7-8.7,1
				c-2,2.7-1.8,7-2.5,10.7C232.3,503,236.9,503.9,241.6,504.8z M319.3,501.9c0.9,1,1.8,2,2.7,3.1c4.8-1.1,9.7-1.8,14.2-3.7
				c0.6-0.2-0.4-7.2-2.4-9.5c-1.6-1.8-7.4-2.7-8.7-1.4C322.3,493.4,321.1,497.9,319.3,501.9z M372.8,503.7
				c-2.8-5.8-4.1-10.1-6.8-13.4c-1-1.2-6.6-1-7.5,0.3c-2.4,3.4-3.4,7.8-5.3,13C360.3,503.7,364.9,503.7,372.8,503.7z M491.1,505.8
				c2.3-2.4,6.1-4.5,6.7-7.3c1.1-4.9-1.5-8.9-7.3-9.1c-5.7-0.2-7.8,3.4-8.4,8.5C481.5,503.6,484.7,504.6,491.1,505.8z M252.9,430.7
				c-1.8-5-2.5-9.4-4.9-12.5c-1.2-1.5-7.1-1.8-8.1-0.5c-2.6,3.2-3.6,7.8-5.8,13C241.1,430.7,245.8,430.7,252.9,430.7z M543.3,501.9
				c0.9,1,1.8,1.9,2.7,2.9c4.7-0.9,9.5-1.4,13.8-3.1c0.7-0.3-0.1-7.3-2-9.6c-1.5-1.9-7.5-2.9-8.7-1.7
				C546.2,493.3,545.1,497.9,543.3,501.9z M272.3,505.1c1-1,2-2,2.9-3.1c-1.8-4-2.9-8.5-5.6-11.7c-1-1.2-6.8-0.6-8.1,1
				c-1.9,2.5-3.3,9-2.3,9.6C263.1,503.2,267.9,503.8,272.3,505.1z M400.2,504.7c0.7-0.8,1.5-1.6,2.2-2.4c-1.6-4-2.5-8.6-5.1-11.8
				c-1-1.3-7.2-0.5-8.7,1.3c-1.9,2.4-2.7,9.2-1.9,9.6C390.8,503.3,395.7,503.7,400.2,504.7z M415.9,502c0.9,1,1.9,2.1,2.8,3.1
				c4.5-1.2,9.2-1.9,13.1-4.1c1-0.5,0.2-7-1.7-9c-1.7-1.8-7.6-2.9-8.7-1.7C418.8,493.4,417.7,498,415.9,502z M602.3,387.4
				c3.5-3.8,7-5.9,7.6-8.6c1.1-5.1-2-9-7.4-9.1c-6-0.2-8.6,4.3-7.9,9.5C594.9,381.6,598.5,383.5,602.3,387.4z M212.2,434.1
				c3.5-4.3,7.3-7.2,6.8-8.6c-1.2-3.3-4.4-5.8-6.9-8.7c-2.3,2.8-5.5,5.4-6.6,8.7C205.1,427,208.8,429.9,212.2,434.1z M181.8,434.3
				c3.5-4.4,6.4-6.4,6.6-8.6c0.4-4.9-2.3-9.4-7.6-8.4c-2.6,0.5-5.6,4.9-6.1,7.9C174.4,427.3,178.3,429.9,181.8,434.3z"/>
			<rect x="148.3" y="348.6" class="st7" width="124" height="41"/>
		</g>
		<path class="st4" d="M213.5,350.9h-65.9l-0.4,126.6c0,0-3.1,60.2,23.5,88.8s52.2,32.5,76.9,35.9l33.8,0.6c0,0-28.3-15.6-41.7-38.8
			s-19.6-19.3-22.8-90.3C213.8,402.6,213.5,350.9,213.5,350.9z"/>
		<rect x="29.1" y="363.7" class="st4" width="127.6" height="8.5"/>
		<rect x="651.5" y="328.9" class="st4" width="40.2" height="225.2"/>
		<path class="st8" d="M688.3,499.4h-81.5c-23.4,0-42.5-19.1-42.5-42.5v0c0-23.4,19.1-42.5,42.5-42.5h81.5
			c23.4,0,42.5,19.1,42.5,42.5v0C730.9,480.3,711.8,499.4,688.3,499.4z"/>
		<line class="st9" x1="188.5" y1="579.3" x2="619.4" y2="580.1"/>
		<line class="st9" x1="197.4" y1="555.7" x2="628.3" y2="556.5"/>
		<line class="st9" x1="218.3" y1="528.6" x2="656.2" y2="529.4"/>
		<line class="st9" x1="147.9" y1="479.1" x2="564.9" y2="479.9"/>
		<line class="st9" x1="176.5" y1="507" x2="656.3" y2="507.7"/>
		<line class="st9" x1="148.7" y1="455.9" x2="565.7" y2="456.7"/>
		<line class="st9" x1="153.3" y1="429.6" x2="570.3" y2="430.4"/>
		<line class="st9" x1="156" y1="410.1" x2="286" y2="410.1"/>
		<line class="st9" x1="156" y1="384.9" x2="269.7" y2="384.9"/>
		<line class="st9" x1="562.9" y1="384.2" x2="652.7" y2="384.2"/>
		<line class="st9" x1="539.7" y1="405.8" x2="655" y2="405.8"/>
		<line class="st9" x1="593.9" y1="356.3" x2="660.4" y2="356.3"/>
		<g>
			<ellipse class="st10" cx="643.7" cy="590.8" rx="12.1" ry="11.1"/>
			<rect x="613.6" y="579.5" class="st10" width="30.2" height="22.4"/>
		</g>
		<path class="st11" d="M252.7,507.9L252.7,507.9c-6.4,0-11.6-5.2-11.6-11.6V494c0-6.4,5.2-11.6,11.6-11.6h0
			c6.4,0,11.6,5.2,11.6,11.6v2.3C264.3,502.7,259.1,507.9,252.7,507.9z"/>
		<g>
			<g>
				<path class="st5" d="M741.2,192.5c-20.6,0-37.3-16.7-37.3-37.3c0-20.6,16.7-37.3,37.3-37.3H593.6v74.6H741.2z"/>
				<path class="st5" d="M557.5,155.2c0,20.6,16.7,37.3,37.3,37.3c0.1,0,0.2,0,0.3,0c20.4-0.2,37-16.8,37-37.3
					c0-20.5-16.5-37.1-37-37.3c-0.1,0-0.2,0-0.3,0C574.2,117.9,557.5,134.6,557.5,155.2z"/>
			</g>
			<g>
				<path class="st6" d="M640.7,192.5c-9.5,0-17.1-16.7-17.1-37.3c0-20.6,7.7-37.3,17.1-37.3H573v74.6H640.7z"/>
				<path class="st6" d="M556.4,155.2c0,20.6,7.7,37.3,17.1,37.3c0,0,0.1,0,0.1,0c9.4-0.2,17-16.8,17-37.3c0-20.5-7.6-37.1-17-37.3
					c0,0-0.1,0-0.1,0C564.1,117.9,556.4,134.6,556.4,155.2z"/>
			</g>
		</g>
		<g>
			<g>
				<path class="st5" d="M309.5,218.8c-20.6,0-37.3-16.7-37.3-37.3c0-20.6,16.7-37.3,37.3-37.3H161.9v74.6H309.5z"/>
				<path class="st5" d="M125.9,181.5c0,20.6,16.7,37.3,37.3,37.3c0.1,0,0.2,0,0.3,0c20.4-0.2,37-16.8,37-37.3
					c0-20.5-16.5-37.1-37-37.3c-0.1,0-0.2,0-0.3,0C142.6,144.2,125.9,160.9,125.9,181.5z"/>
			</g>
			<g>
				<path class="st6" d="M209.1,218.8c-9.5,0-17.1-16.7-17.1-37.3c0-20.6,7.7-37.3,17.1-37.3h-67.7v74.6H209.1z"/>
				<path class="st6" d="M124.8,181.5c0,20.6,7.7,37.3,17.1,37.3c0,0,0.1,0,0.1,0c9.4-0.2,17-16.8,17-37.3c0-20.5-7.6-37.1-17-37.3
					c0,0-0.1,0-0.1,0C132.4,144.2,124.8,160.9,124.8,181.5z"/>
			</g>
		</g>
		<g>
			<g>
				<path class="st5" d="M516.1,156.9c-20.6,0-37.3-16.7-37.3-37.3c0-20.6,16.7-37.3,37.3-37.3H368.6v74.6H516.1z"/>
				<path class="st5" d="M332.5,119.6c0,20.6,16.7,37.3,37.3,37.3c0.1,0,0.2,0,0.3,0c20.4-0.2,37-16.8,37-37.3
					c0-20.5-16.5-37.1-37-37.3c-0.1,0-0.2,0-0.3,0C349.2,82.3,332.5,99,332.5,119.6z"/>
			</g>
			<g>
				<path class="st6" d="M415.7,156.9c-9.5,0-17.1-16.7-17.1-37.3c0-20.6,7.7-37.3,17.1-37.3H348v74.6H415.7z"/>
				<path class="st6" d="M331.4,119.6c0,20.6,7.7,37.3,17.1,37.3c0,0,0.1,0,0.1,0c9.4-0.2,17-16.8,17-37.3c0-20.5-7.6-37.1-17-37.3
					c0,0-0.1,0-0.1,0C339.1,82.3,331.4,99,331.4,119.6z"/>
			</g>
		</g>
		<g>
			<g>
				<path class="st5" d="M499.3,378.8c-16.7,0-30.2-13.5-30.2-30.2c0-16.7,13.5-30.2,30.2-30.2H379.7v60.4H499.3z"/>
				<path class="st5" d="M350.5,348.6c0,16.7,13.5,30.2,30.2,30.2c0.1,0,0.2,0,0.2,0c16.6-0.1,30-13.6,30-30.2
					c0-16.6-13.4-30.1-30-30.2c-0.1,0-0.2,0-0.2,0C364.1,318.4,350.5,331.9,350.5,348.6z"/>
			</g>
			<g>
				<path class="st6" d="M417.9,378.8c-7.7,0-13.9-13.5-13.9-30.2c0-16.7,6.2-30.2,13.9-30.2H363v60.4H417.9z"/>
				<path class="st6" d="M349.6,348.6c0,16.7,6.2,30.2,13.9,30.2c0,0,0.1,0,0.1,0c7.6-0.1,13.7-13.6,13.7-30.2
					c0-16.6-6.1-30.1-13.7-30.2c0,0-0.1,0-0.1,0C355.9,318.4,349.6,331.9,349.6,348.6z"/>
			</g>
		</g>
		<g>
			<g>
				<path class="st5" d="M704.2,257c-13.5,0-24.5-11-24.5-24.5c0-13.5,11-24.5,24.5-24.5h-96.8V257H704.2z"/>
				<path class="st5" d="M583.7,232.5c0,13.5,11,24.5,24.5,24.5c0.1,0,0.1,0,0.2,0c13.4-0.1,24.3-11,24.3-24.5
					c0-13.4-10.8-24.3-24.3-24.5c-0.1,0-0.1,0-0.2,0C594.7,208.1,583.7,219,583.7,232.5z"/>
			</g>
			<g>
				<path class="st6" d="M638.3,257c-6.2,0-11.2-11-11.2-24.5c0-13.5,5-24.5,11.2-24.5h-44.4V257H638.3z"/>
				<path class="st6" d="M583,232.5c0,13.5,5,24.5,11.2,24.5c0,0,0.1,0,0.1,0c6.2-0.1,11.1-11,11.1-24.5c0-13.4-5-24.3-11.1-24.5
					c0,0-0.1,0-0.1,0C588,208.1,583,219,583,232.5z"/>
			</g>
		</g>
		<g>
			<g>
				<path class="st5" d="M275.7,295.7c-13.5,0-24.5-11-24.5-24.5c0-13.5,11-24.5,24.5-24.5h-96.8v48.9H275.7z"/>
				<path class="st5" d="M155.2,271.2c0,13.5,11,24.5,24.5,24.5c0.1,0,0.1,0,0.2,0c13.4-0.1,24.3-11,24.3-24.5
					c0-13.4-10.8-24.3-24.3-24.5c-0.1,0-0.1,0-0.2,0C166.2,246.8,155.2,257.7,155.2,271.2z"/>
			</g>
			<g>
				<path class="st6" d="M209.8,295.7c-6.2,0-11.2-11-11.2-24.5c0-13.5,5-24.5,11.2-24.5h-44.4v48.9H209.8z"/>
				<path class="st6" d="M154.5,271.2c0,13.5,5,24.5,11.2,24.5c0,0,0.1,0,0.1,0c6.2-0.1,11.1-11,11.1-24.5c0-13.4-5-24.3-11.1-24.5
					c0,0-0.1,0-0.1,0C159.5,246.8,154.5,257.7,154.5,271.2z"/>
			</g>
		</g>
	</g>
	<g>
		<path class="st5" d="M288.3,487.9l-8.7-20.8h-17.1l10.5,25C280.6,489.8,285.7,488.5,288.3,487.9L288.3,487.9z M269.4,507.7
			c-3.2,1.8-10.6,6.4-16.9,12.7l7,14.8c7.5,0.1,14.9,0.6,22.2,1.5L269.4,507.7z M208.2,541.9c1.2-0.4,2.4-0.7,3.6-1c0,0,0.1,0,0.1,0
			c0.6-0.2,1.2-0.3,1.8-0.5c0,0,0.1,0,0.1,0c1.3-0.3,2.5-0.6,3.8-0.9c3-0.7,6.1-1.3,9.2-1.8c12.9-16.7,27.6-27.6,49.5-37.4l16,38.3
			c6.8,1.3,13.2,3,19.3,5.1l-20.7-49.3c6.2-2.3,12.9-4.7,20.3-7.1l1.6-2.5c-15.6,3.2-32.2,7.4-47.7,13l-12.9-30.7h-16.1l-33.2,75.8
			c-0.1,0.3-0.3,0.6-0.4,0.9c0.5-0.2,1.1-0.4,1.6-0.6c0.2-0.1,0.3-0.1,0.5-0.2c0.4-0.1,0.8-0.3,1.2-0.4c0.2-0.1,0.3-0.1,0.5-0.2
			c0.5-0.1,0.9-0.3,1.4-0.4C208,542,208.1,541.9,208.2,541.9L208.2,541.9z M239.6,492.9l6.1,12.9c-5.9,2.8-11.4,5.8-16.5,9.1
			L239.6,492.9z"/>
		<path class="st5" d="M344.3,535.1v-18.5h-6.8v-5.1h19v5.1h-6.8v18.5H344.3z M361.1,535.5c-1.9,0-3.4-0.5-4.5-1.5
			c-1.1-1-1.7-2.4-1.7-4.1c0-1.1,0.3-2.1,0.9-2.9c0.6-0.8,1.4-1.5,2.5-2c1.1-0.5,2.3-0.7,3.7-0.7c0.7,0,1.4,0.1,2.1,0.2
			c0.7,0.1,1.2,0.2,1.7,0.4v-1c0-0.7-0.3-1.3-0.8-1.7c-0.5-0.4-1.2-0.6-2.1-0.6c-0.9,0-1.7,0.2-2.6,0.5c-0.9,0.3-1.8,0.8-2.8,1.4
			l-1.6-3.9c1.1-0.7,2.2-1.3,3.5-1.6c1.3-0.4,2.6-0.6,4-0.6c2.5,0,4.3,0.6,5.6,1.7c1.2,1.1,1.9,2.8,1.9,5.1v10.9h-5v-1.3
			c-0.5,0.5-1.2,1-2,1.2C363,535.3,362.1,535.5,361.1,535.5z M362.5,531.3c0.6,0,1.2-0.1,1.8-0.3c0.6-0.2,1.1-0.5,1.5-0.9v-1.4
			c-0.4-0.2-0.9-0.3-1.4-0.4c-0.5-0.1-1-0.1-1.5-0.1c-0.9,0-1.6,0.1-2.1,0.4c-0.5,0.3-0.8,0.7-0.8,1.2c0,0.4,0.2,0.8,0.7,1
			C361,531.1,361.6,531.3,362.5,531.3z M373.8,535.1v-17.3h5.1v17.3H373.8z M376.4,516.3c-0.8,0-1.5-0.3-2-0.9
			c-0.6-0.6-0.9-1.3-0.9-2c0-0.8,0.3-1.4,0.8-2c0.6-0.6,1.2-0.8,2.1-0.8c0.8,0,1.5,0.3,2.1,0.8c0.6,0.5,0.8,1.2,0.8,2
			c0,0.8-0.3,1.5-0.8,2.1C377.9,516,377.2,516.3,376.4,516.3z M386,535.1l-5-17.3h5l1.7,6.7c0.1,0.3,0.2,0.7,0.3,1.2
			c0.1,0.5,0.2,1,0.3,1.4c0.1-0.4,0.2-0.9,0.3-1.4c0.1-0.5,0.2-0.9,0.3-1.3l1.7-6.7h4.5l1.7,6.7c0.1,0.3,0.2,0.7,0.3,1.3
			c0.1,0.5,0.2,1,0.3,1.4c0.1-0.4,0.1-0.9,0.2-1.4c0.1-0.5,0.2-0.9,0.3-1.2l1.8-6.7h5l-5.1,17.3h-4.5l-1.7-7.6
			c-0.1-0.3-0.2-0.7-0.3-1.3c-0.1-0.6-0.2-1.1-0.3-1.6c-0.1,0.4-0.2,1-0.3,1.6c-0.1,0.6-0.2,1-0.3,1.3l-1.7,7.6H386z M411.4,535.5
			c-1.9,0-3.4-0.5-4.5-1.5c-1.1-1-1.7-2.4-1.7-4.1c0-1.1,0.3-2.1,0.9-2.9c0.6-0.8,1.4-1.5,2.5-2c1.1-0.5,2.3-0.7,3.7-0.7
			c0.7,0,1.4,0.1,2.1,0.2c0.7,0.1,1.2,0.2,1.7,0.4v-1c0-0.7-0.3-1.3-0.8-1.7c-0.5-0.4-1.2-0.6-2.1-0.6c-0.9,0-1.7,0.2-2.6,0.5
			c-0.9,0.3-1.8,0.8-2.8,1.4l-1.6-3.9c1.1-0.7,2.2-1.3,3.5-1.6c1.3-0.4,2.6-0.6,4-0.6c2.5,0,4.3,0.6,5.6,1.7
			c1.2,1.1,1.9,2.8,1.9,5.1v10.9h-5v-1.3c-0.5,0.5-1.2,1-2,1.2C413.3,535.3,412.4,535.5,411.4,535.5z M412.8,531.3
			c0.6,0,1.2-0.1,1.8-0.3c0.6-0.2,1.1-0.5,1.5-0.9v-1.4c-0.4-0.2-0.9-0.3-1.4-0.4c-0.5-0.1-1-0.1-1.5-0.1c-0.9,0-1.6,0.1-2.1,0.4
			c-0.5,0.3-0.8,0.7-0.8,1.2c0,0.4,0.2,0.8,0.7,1C411.3,531.1,411.9,531.3,412.8,531.3z M424.1,535.1v-17.3h5.1v1.6
			c0.6-0.7,1.2-1.2,2-1.5c0.8-0.3,1.7-0.5,2.7-0.5c1.8,0,3.3,0.6,4.3,1.7c1.1,1.1,1.6,2.7,1.6,4.6v11.3h-5.1v-8.8
			c0-1.4-0.2-2.5-0.6-3.1c-0.4-0.6-1.1-0.9-2.1-0.9c-1,0-1.8,0.3-2.2,0.9c-0.5,0.6-0.7,1.6-0.7,3v8.9H424.1z M446.8,535.1l9.4-23.6
			h5.1l9.5,23.6H465l-1.8-4.5h-8.8l-1.7,4.5H446.8z M456.2,525.7h5.2l-1.9-4.7c-0.1-0.2-0.1-0.3-0.2-0.5c-0.1-0.2-0.2-0.4-0.2-0.6
			c-0.1-0.2-0.1-0.4-0.2-0.6c-0.1,0.2-0.1,0.4-0.2,0.6c-0.1,0.2-0.2,0.4-0.3,0.6c-0.1,0.2-0.2,0.4-0.2,0.5L456.2,525.7z
			 M472.1,535.1v-23.6h5.3v23.6H472.1z M484.4,535.1l9.4-23.6h5.1l9.5,23.6h-5.8l-1.8-4.5H492l-1.7,4.5H484.4z M493.8,525.7h5.2
			l-1.9-4.7c-0.1-0.2-0.1-0.3-0.2-0.5c-0.1-0.2-0.2-0.4-0.2-0.6c-0.1-0.2-0.1-0.4-0.2-0.6c-0.1,0.2-0.1,0.4-0.2,0.6
			c-0.1,0.2-0.2,0.4-0.3,0.6c-0.1,0.2-0.2,0.4-0.2,0.5L493.8,525.7z M516.8,535.5c-1.7,0-3.1-0.4-4.3-1.1c-1.2-0.7-2.2-1.8-2.8-3.1
			c-0.7-1.4-1-3-1-4.8c0-1.8,0.3-3.4,1-4.8c0.7-1.4,1.6-2.4,2.8-3.2c1.2-0.7,2.7-1.1,4.3-1.1c2,0,3.6,0.5,4.9,1.4
			c1.3,0.9,2.2,2.3,2.8,4.1l-4.8,1.6c-0.3-0.7-0.6-1.3-1.1-1.6c-0.5-0.4-1-0.6-1.7-0.6c-0.9,0-1.6,0.4-2.2,1.2
			c-0.6,0.8-0.9,1.8-0.9,3c0,1.2,0.3,2.2,0.8,3c0.6,0.8,1.3,1.2,2.2,1.2c0.7,0,1.3-0.2,1.7-0.6c0.5-0.4,0.9-1,1.1-1.9l4.8,1.4
			c-0.6,2-1.5,3.5-2.8,4.5C520.4,535,518.7,535.5,516.8,535.5z M532.1,535.5c-1.9,0-3.4-0.5-4.5-1.5c-1.1-1-1.7-2.4-1.7-4.1
			c0-1.1,0.3-2.1,0.9-2.9c0.6-0.8,1.4-1.5,2.5-2c1.1-0.5,2.3-0.7,3.7-0.7c0.7,0,1.4,0.1,2.1,0.2c0.7,0.1,1.3,0.2,1.7,0.4v-1
			c0-0.7-0.3-1.3-0.8-1.7c-0.5-0.4-1.2-0.6-2.1-0.6c-0.9,0-1.7,0.2-2.6,0.5c-0.9,0.3-1.8,0.8-2.8,1.4l-1.6-3.9
			c1.1-0.7,2.2-1.3,3.5-1.6c1.3-0.4,2.6-0.6,4-0.6c2.5,0,4.3,0.6,5.6,1.7c1.2,1.1,1.9,2.8,1.9,5.1v10.9h-5v-1.3
			c-0.5,0.5-1.2,1-2,1.2C534,535.3,533.1,535.5,532.1,535.5z M533.4,531.3c0.6,0,1.2-0.1,1.8-0.3c0.6-0.2,1.1-0.5,1.5-0.9v-1.4
			c-0.4-0.2-0.9-0.3-1.4-0.4c-0.5-0.1-1-0.1-1.5-0.1c-0.9,0-1.6,0.1-2.1,0.4c-0.5,0.3-0.8,0.7-0.8,1.2c0,0.4,0.2,0.8,0.7,1
			C532,531.1,532.6,531.3,533.4,531.3z M551,535.5c-2.2,0-4-0.8-5.2-2.4c-1.2-1.6-1.9-3.8-1.9-6.7c0-1.8,0.3-3.3,0.9-4.7
			c0.6-1.4,1.4-2.4,2.5-3.2c1.1-0.8,2.3-1.1,3.7-1.1c1.4,0,2.6,0.6,3.4,1.7V513l5.1-2.3v24.4h-5.1v-1.5
			C553.8,534.9,552.6,535.5,551,535.5z M551.8,530.6c0.7,0,1.2-0.1,1.6-0.2c0.4-0.2,0.7-0.4,1-0.8v-6.2c-0.3-0.3-0.7-0.6-1.1-0.8
			c-0.5-0.2-0.9-0.3-1.5-0.3c-0.9,0-1.6,0.4-2.1,1.1c-0.5,0.7-0.8,1.7-0.8,3.1c0,0.9,0.1,1.7,0.3,2.3c0.2,0.6,0.5,1.1,1,1.4
			C550.6,530.4,551.2,530.6,551.8,530.6z M570.3,535.5c-1.7,0-3.2-0.4-4.4-1.1c-1.2-0.7-2.2-1.8-2.8-3.1c-0.7-1.4-1-3-1-4.9
			c0-1.8,0.3-3.4,1-4.8c0.7-1.4,1.6-2.4,2.9-3.1c1.2-0.7,2.7-1.1,4.4-1.1c1.5,0,2.8,0.3,4,0.9c1.2,0.6,2.1,1.5,2.8,2.7
			c0.7,1.2,1,2.7,1,4.6c0,0.3,0,0.7,0,1.2c0,0.5-0.1,0.9-0.1,1.4h-11c0,0.6,0.1,1.2,0.4,1.6c0.3,0.5,0.7,0.8,1.1,1
			c0.5,0.2,1.1,0.4,1.8,0.4c0.9,0,1.6-0.1,2.2-0.4c0.6-0.3,1.2-0.7,1.7-1.4l2.9,2.9c-0.8,1-1.8,1.8-2.9,2.3
			C573.1,535.2,571.8,535.5,570.3,535.5z M567,524.4h6.2c-0.1-0.6-0.3-1.1-0.5-1.5c-0.3-0.4-0.6-0.7-1-0.9c-0.4-0.2-0.9-0.3-1.6-0.3
			c-0.8,0-1.5,0.2-2.1,0.7C567.5,522.9,567.1,523.5,567,524.4z M580.4,535.1v-17.3h5.1v1.6c0.6-0.7,1.2-1.2,1.8-1.5
			c0.6-0.3,1.4-0.5,2.2-0.5c1,0,1.9,0.2,2.6,0.6c0.7,0.4,1.2,1,1.6,1.8c0.6-0.8,1.4-1.4,2.3-1.8c0.9-0.4,2-0.6,3.2-0.6
			c2.3,0,4,0.6,5,1.7c1.1,1.1,1.6,2.9,1.6,5.4v10.6h-5.1v-8.8c0-1.4-0.2-2.5-0.6-3.1c-0.4-0.6-1-0.9-1.9-0.9c-0.6,0-1.1,0.1-1.5,0.4
			c-0.4,0.2-0.6,0.7-0.8,1.2c-0.2,0.6-0.2,1.3-0.2,2.3v8.9h-5.1v-8.8c0-1.4-0.2-2.5-0.6-3.1c-0.4-0.6-1-0.9-1.9-0.9
			c-0.9,0-1.6,0.3-2,0.9c-0.4,0.6-0.6,1.6-0.6,3v8.9H580.4z M610.8,541.6l2.6-6.8l-6.5-17.1h5.3l3.4,9c0.1,0.2,0.2,0.5,0.3,0.8
			c0.1,0.3,0.2,0.6,0.3,0.9c0.1-0.3,0.2-0.6,0.3-0.8c0.1-0.3,0.2-0.6,0.3-0.8l3.4-9h5.2l-9.2,23.8H610.8z"/>
		<path class="st5" d="M368.9,479.4l-4.3,3.1c-0.4-0.7-1-1.6-1.6-2.5c-17.7,0.8-20.4,0.8-22.5,1.5c-0.2-1-1.1-3.5-1.7-4.8
			c1-0.2,1.8-0.9,2.9-1.9c1.2-1.1,4.8-5.2,7-9.3l5.1,2.2c-2,2.9-4.4,5.7-6.9,8.1l12.3-0.3c-1.2-1.4-2.4-2.6-3.5-3.8l3.9-2.6
			C362.8,472.1,367,476.4,368.9,479.4z M360,488.4h-13.6v4.3H360V488.4z M341.2,499.2v-15.7h24.2v15.7H360v-1.7h-13.6v1.7H341.2z
			 M396.9,472.3l0.1,0h-8.1v-2.5h3.1c-0.2-0.7-0.6-1.6-0.9-2.3l3.2-0.6c0.4,0.8,0.9,2,1.1,2.7l-1.2,0.3h3v2.5
			c0.3-0.2,0.6-0.5,0.9-0.9c0.4-0.5,1.6-2.6,2-4.5l2.6,0.9c-0.5,1.2-1.3,2.5-2.1,3.7l1.2-0.1c0.3-0.5,0.6-1,0.8-1.5l2.5,1.1
			c-0.9,1.6-2.1,3.3-3.5,4.8l1.4-0.1c-0.1-0.2-0.2-0.5-0.3-0.7l1.9-0.7c0.6,1.2,1.2,2.8,1.5,3.8l-2,0.8c-0.1-0.3-0.1-0.6-0.3-1
			c-4.2,0.6-5.1,0.8-5.7,1c-0.1-0.4-0.6-1.4-0.9-1.9c0.6-0.1,1.1-0.5,1.7-1.2c0.3-0.3,0.9-1,1.5-1.9c-1.5,0.1-2.1,0.3-2.5,0.4
			C397.7,473.8,397.2,472.8,396.9,472.3z M402.8,483.7l-2.1,0.7c0-1.1-0.2-2.8-0.6-4.2l2-0.6C402.4,481,402.7,482.7,402.8,483.7z
			 M397.7,479.4l2.3,0.6c-0.2,1.7-0.7,3.4-1.4,4.5c-0.5-0.4-1.4-1.1-1.9-1.4C397.2,482.1,397.5,480.8,397.7,479.4z M396.6,475.7v2.1
			h-6.7v-2.1H396.6z M392.7,480.7v1.1h1v-1.1H392.7z M389.9,483.9v-5.2h6.7v5.2H389.9z M396.6,473v2.1h-6.7V473H396.6z M389.5,477.9
			l-2,0.8c0-0.3-0.1-0.7-0.2-1c-4.2,0.6-5.1,0.8-5.8,1c-0.1-0.4-0.6-1.4-0.9-1.9c0.6-0.1,1-0.6,1.7-1.2c0.3-0.3,0.9-1,1.5-1.9
			c-1.5,0.1-2.1,0.3-2.5,0.4c-0.1-0.4-0.6-1.3-0.9-1.8c0.5-0.1,0.8-0.5,1.2-1c0.4-0.5,1.6-2.6,2-4.5l2.6,0.9
			c-0.5,1.2-1.3,2.5-2.1,3.7l1.2-0.1c0.3-0.5,0.6-1,0.8-1.5l2.5,1.1c-0.9,1.6-2.1,3.3-3.4,4.8l1.4-0.1c-0.1-0.2-0.2-0.5-0.3-0.7
			l1.9-0.7C388.6,475.3,389.2,476.9,389.5,477.9z M389.1,482.4l-1.9,0.9c-0.1-1-0.4-2.5-0.8-3.6l1.8-0.7
			C388.6,480,389,481.5,389.1,482.4z M386.2,483.3l-2.1,0.7c0-1-0.2-2.6-0.6-3.9l2-0.6C385.9,480.8,386.2,482.3,386.2,483.3z
			 M381.1,479.5l2.3,0.6c-0.2,1.7-0.7,3.4-1.4,4.5c-0.5-0.4-1.4-1.1-1.9-1.4C380.6,482.2,380.9,480.9,381.1,479.5z M381.6,470.2
			l-3,3.8c-1-1.1-3.2-2.7-5-3.8l2.8-3.4C378.2,467.7,380.5,469.1,381.6,470.2z M380.9,479l-2.9,3.8c-1-1-3.3-2.6-5-3.5l2.7-3.5
			C377.4,476.6,379.7,478,380.9,479z M378.3,498.9l-4.5-2.5c1.3-2.7,3-7.1,4.4-11.2l4,2.6C381,491.5,379.7,495.4,378.3,498.9z
			 M387.9,491.5h17c0,0-0.1,1.1-0.2,1.7c-0.5,2.7-1,4.2-2,5c-1,0.8-2.1,1-3.6,1c-1.2,0-3.3,0-5.5,0c-0.1-1.1-0.6-2.6-1.3-3.6
			c2,0.2,4.3,0.2,5.2,0.2c0.7,0,1.1,0,1.5-0.3c0.2-0.2,0.5-0.5,0.7-1.1h-17.2c0.6-1.8,1.2-4.3,1.6-6.4h14.5v-0.7h-15.4v-2.7h20v6.1
			h-15.1L387.9,491.5z M402.9,479.7l1.9-0.7c0.5,1.3,1,3.1,1.1,4.1l-1.9,0.9C403.8,482.8,403.3,481,402.9,479.7z M422.7,466.3h5.8
			c0,1.6-0.1,3.6-0.3,5.8c0.5,4.9,2.7,17.2,14.7,22.5c-1.6,1.2-3,2.9-3.7,4.4c-7.3-3.5-11.2-9.6-13.3-15.3
			c-2,5.7-5.6,11.4-12.2,15.5c-0.9-1.4-2.5-3-4.2-4.1C423.4,487.4,422.5,472.6,422.7,466.3z M465.3,491.9h13.3v5.1h-32v-5.1h12.9
			V475h-10.9v-5.3h27.9v5.3h-11.3V491.9z M487,474.3h2.3v-0.5v-1.2h-1.1C487.8,473.3,487.4,473.8,487,474.3z M505.6,488.2h-13.3v1.2
			h13.3V488.2z M492.3,494.2h13.3V493h-13.3V494.2z M499.3,480.9l-3.6,3.1c-1-0.8-2.6-2.1-4-3.1c-0.9,1.2-2.1,2.3-3.7,3.4h22.9v14.9
			h-5.2v-1.1h-13.3v1.1h-5v-14.6c-0.5,0.3-1.1,0.6-1.7,0.9c-0.7-1-2.1-2.5-3.2-3.3c3-1.1,4.7-2.6,5.7-4h-5.2v-3.9h2.4
			c-0.9-0.6-2.1-1.2-2.8-1.6c1.8-1.6,3.1-4.1,3.7-6.7l4.4,0.9c-0.2,0.6-0.3,1.2-0.6,1.8h8.1v3.8H494v1.3v0.4h5v3.9h-4.5
			C496.1,479.1,498.5,480.4,499.3,480.9z M508.8,478.2v-5h-4.2v5H508.8z M500,468.7h13.9v13.9H500V468.7z M540.1,478.7v-1.1h-4.7
			v-2.8h4.7V474h-3.8v-2.8h3.8v-0.7h-4.5v-2.8h4.5v-1.2h4.7v1.2h5.1v2.8h-5.1v0.7h4.5v2.8h-4.5v0.8h5.8v2.8h-5.8v1.1H540.1z
			 M525.2,478.7v-1.1h-5.3v-2.8h5.3V474h-4v-2.8h4v-0.7h-4.8v-2.8h4.8v-1.2h4.6v1.2h4.5v2.8h-4.5v0.7h4.1v2.8h-4.1v0.8h4.7v2.8h-4.7
			v1.1H525.2z M543.2,486.5v-0.8h-23.7v-2.8h23.7v-0.7h-20.6v-3.1h25.6v3.8h3.2v2.8h-3.2v3.8h-10.2c0.9,0.7,1.7,1.3,2.2,1.9
			l-3.5,2.9c-0.8-1-2.6-2.5-4-3.5l1.6-1.3h-12v-3.1H543.2z M523.1,498.7l-4.3-2.7c1.7-1.4,3.3-3.7,4.2-5.8l4.3,1.9
			C526.3,494.5,524.9,497,523.1,498.7z M551.9,496.2l-4.4,2.4c-0.6-1.1-1.6-2.6-2.8-4c-0.7,3.4-2,4.3-5.5,4.3h-5.3
			c-5.1,0-6.3-1.3-6.3-5.3v-3.3h5v3.3c0,1,0.3,1.1,1.9,1.1h4.2c1.2,0,1.5-0.3,1.7-2.4c0.8,0.6,2.2,1.1,3.5,1.5
			c-0.5-0.6-1-1.1-1.5-1.6l4.1-2.2C548.4,491.7,550.8,494.3,551.9,496.2z M575.9,470.4l-2.4,2c-0.4-0.4-0.9-0.8-1.5-1.2
			c-0.8,0.6-1.7,1.1-2.5,1.5c-0.6-0.6-1.8-1.7-2.6-2.2c0.8-0.3,1.6-0.7,2.4-1.2c-0.6-0.3-1.1-0.6-1.6-0.9l2.2-1.8
			c0.6,0.3,1.2,0.6,1.8,1c0.4-0.4,0.8-0.8,1.1-1.1l3.2,0.9c-0.5,0.6-1,1.2-1.6,1.8C574.9,469.7,575.5,470.1,575.9,470.4z
			 M563.4,478.1l0.1,0.8h5.3c-0.4-0.5-1-1.1-1.6-1.6v0.8H563.4z M561.1,482.4v4h-4.7v-7.6h2.5l-0.6-10.4c2.1-0.4,5.3-1.4,7.2-2
			l2,2.8c-1.3,0.5-2.9,0.9-4.4,1.3l0,0.7h4.1v3h-4l0.1,0.8h3.9v1.4c0.7-0.3,1.3-0.6,1.9-1c-0.6-0.3-1.1-0.7-1.7-1l2.3-1.9
			c0.6,0.3,1.2,0.7,1.9,1c0.5-0.4,0.9-0.9,1.2-1.3l3.2,1c-0.5,0.7-1.1,1.4-1.7,2c0.7,0.5,1.4,1,1.9,1.5l-2.4,2.1
			c-0.5-0.5-1.1-1-1.8-1.5c-0.8,0.6-1.6,1.1-2.4,1.5h10.3l0.1-0.8h-3.6v-3h3.8l0-0.8h-3.7v-3h3.9l0-0.8h-4.2v-3.1h9.1
			c-0.2,3.7-0.5,8.1-0.8,11.5h2.5v7.6h-5v-4H561.1z M587.5,489.2v4h-12.9v1.6c0,2.1-0.5,3.2-2.1,3.9c-1.6,0.6-3.6,0.6-6.1,0.6
			c-0.2-1.3-0.9-3.1-1.6-4.2c1.4,0.1,3.6,0.1,4.1,0.1c0.6,0,0.7-0.1,0.7-0.5v-1.4h-13.8v-4h13.8v-0.7c0.9-0.5,2-1.1,2.9-1.7h-9.8
			v-3.5h14.5l1-0.2l2.8,2.6c-1.6,1.1-3.5,2.4-5.5,3.5H587.5z M617.5,475.6h-7.8l3.5,1.6c-1.1,1.6-2.4,3.3-3.8,4.7l1.9-0.5
			c0.7,1.9,1.5,3.6,2.6,5.2c1-1.6,1.8-3.3,2.4-5.2l3.5,0.9c-1.2-1.7-2.9-3.5-4.4-5L617.5,475.6z M624.6,481.4l-3.7,3.3
			c-0.1-0.2-0.2-0.5-0.4-0.7c-0.8,2.4-1.9,4.6-3.3,6.6c2.1,1.8,4.8,3.1,7.9,4c-1.1,1-2.6,3.2-3.4,4.6c-3.2-1.1-5.8-2.6-8-4.6
			c-2.3,2-5,3.6-8.2,4.9c-0.6-1.1-2.1-3.1-3.1-4c3.2-1.1,5.9-2.7,8-4.7c-1.3-1.9-2.4-4.2-3.3-6.6c-0.3,0.3-0.7,0.6-1,0.9
			c-0.8-0.9-2.2-2.2-3.3-3.1c0.9,1.5,1.9,3,2.2,3.6l-2.8,3.7c-0.4-1.1-1-2.6-1.6-4.1v14.2h-4.6v-12.4c-0.8,2.7-1.7,5.2-2.8,6.9
			c-0.4-1.4-1.5-3.7-2.3-5.1c1.9-2.6,3.4-7.2,4.2-11.1h-3.1v-4.6h3.9v-6.6h4.6v6.6h3.2v4.6h-3.2v0.9c0.4,0.6,1.2,1.8,2.1,3.2
			c1.9-1.5,4.1-3.9,5.5-6h-3.5V471h7.3c-0.5-1.1-1.2-2.5-1.9-3.5l4.5-1.6c1,1.3,2,3.1,2.5,4.3l-2,0.8h9v4.6h-4.6
			C621.6,477.5,623.7,479.7,624.6,481.4z"/>
	</g>
</svg>